<svg xmlns="http://www.w3.org/2000/svg" width="68.544" height="78.311" viewBox="0 0 68.544 78.311">
  <g id="noun_africa_8115" transform="matrix(0.998, 0.07, -0.07, 0.998, 108.73, -212.921)">
    <g id="Gruppe_2" data-name="Gruppe 2" transform="translate(-88.459 219.626)">
      <path id="Pfad_49" data-name="Pfad 49" d="M85.549,19.749l.168-.12.12-.112.08-.1.136-.172.112-.12L86.22,19v-.223l-.088-.137-.072-.12-.04-.112V18.3l.008-.275.08-.163.064-.077.1-.112.128-.129.16-.112.128-.1.144-.146h.208l.112-.034.1-.06.08-.077.072-.069.12-.069H87.9l.04.043.064.077.112.052.088.017.112.052.112.034.072.043.136.086.072.086v.06l.08.129v.077l.12.026.136.009h.088l.112.026.128.06.056.034.184.043.184-.017.128-.009h.144l.192.009.215.009.072.077.04.069v.043l.128.043.1-.034v-.034l.088-.069.064-.069h.215a.293.293,0,0,1,.088.026l.16.034.08.017.112.043.12.009.1.009h.128s.176.009.2.017a.773.773,0,0,0,.1.017l.112.052.064.06a.2.2,0,0,0,.072.06c.032.009.08.026.08.026H92.7l.112.009a.3.3,0,0,0,.064.052c.032.017.048.077.048.077l.1.026.088-.017.032-.047v-.039l.048-.052V18.2l.08-.052.072.009v.086l.112.073h.1l.08.125a.161.161,0,0,1,.072.043.3.3,0,0,0,.088.06l.056.009.064-.034v-.034l.08-.069.088-.06.04-.039.1-.107.088-.077.048-.069.072-.094.064-.052.088-.086.08-.077.064-.043H94.8l.04.009.088.034.152-.009.1-.086.1-.06.048-.077.048-.094.048-.026.12-.009.072.06v.086l.08.1.056.017.072-.017.04-.043.112-.06.1-.077.072.009.056.077.048.069v.077l-.088.052h-.088l.048.069.128.026.064.069v.026l.08-.043v-.077l.16-.052s.1.026.1.06a.228.228,0,0,0,.048.077l.072.034h.247l.088-.034.136-.069.1-.026.08.034.144-.043.04-.06.088-.077.112-.086.072-.069.112-.069.08.034.072.129.04.112.04.137.08.077.088.112.04.146.048.133.056.124.056.12.064.094.08.137.1.094.048.137s-.04.086,0,.129,0,.189,0,.189l.018.129v.189l-.058.026-.04.009-.016.06-.008.163-.024.129-.008.112.008.112.008.077-.016.052-.064.06-.024.06-.008.129-.008.1.024.206.08.06.008.1-.016.043-.064.052-.072.069-.072.069-.056.043-.032.052h-.048l-.088-.052-.088-.06c-.024-.017-.12-.069-.12-.069l-.088-.077-.088-.1-.024-.069-.1-.1-.064-.1-.032-.06-.04-.077-.12-.086-.064-.052-.064-.112-.04-.1-.032-.155-.04-.069-.072-.155-.056-.069-.056-.034-.016-.043-.088-.1-.024-.052-.08-.163-.056-.069-.048-.086-.048-.052-.032.052.032.094.048.112.048.043.08.077.04.112.032.12.016.06L97,20.007v.1l.024.112s.016.077.048.094l.112.06.072.043.088.06.072.112.072.077.032.06.036.082.064.047.044.052.048.056L97.74,21l.028.026.048.039.024.043.06.052.016.026a.374.374,0,0,0,.032.077c.012.013.068.082.068.082l.052.043.06.017.056.021.088.017.092.064.048.034,0,.06-.036.064s0,.043-.02.043h-.064s-.052.009-.064,0-.036.021-.048,0a.039.039,0,0,0-.036-.012l-.028.06s0,.034.016.043.092.026.092.026l.036.039.012.03.052.1.028.034.04.06a.236.236,0,0,0,.032.034l.064.047c.012.009,0-.021.012.009s.024.056.016.069a.227.227,0,0,0-.016.047.149.149,0,0,1-.036.043l-.016.009s-.032.009-.036.034-.012.03-.012.043a.083.083,0,0,0,.036.06c.028.021.008,0,.028.021s0-.009.02.026.048.039.06.069a.423.423,0,0,0,.044.073l.116.064v.047a.053.053,0,0,0,.008.026c.008.013-.008.03.012.039s.036.069.044.086.036.073.036.073l.02.039.032.03.02.047a.455.455,0,0,1,.026.06c0,.013.022.047.026.06s.032.039.04.052a.262.262,0,0,1,.028.043c0,.013-.036.021,0,.034a1.337,1.337,0,0,1,.164.112l.024.064v.086l.064.056v.043l.04.03.028.056.024.047.028.056.036.039.056.086.044.064.044.039.02.034.044.06s.044.06.06.077.052.047.056.06a.394.394,0,0,0,.064.086c.016.013.088.086.1.094a.285.285,0,0,1,.056.043.513.513,0,0,1,.048.043.517.517,0,0,0,.092.082.376.376,0,0,1,.072.082l.048.03.06.047.076.06.016.03.024.039v.073s0,0,0,.026a.079.079,0,0,1,0,.034.393.393,0,0,1-.036.017.127.127,0,0,0-.048.034.156.156,0,0,1-.032.03l-.044.03a.838.838,0,0,0-.1.129.185.185,0,0,0,.008.043s.02.013.024.026a.79.79,0,0,0,.048.077h.028s.1.069.132.082.012-.03.044,0,.06.052.06.052l.056.069.09.077a.256.256,0,0,1,.042.058c.006.019.072,0,.072,0l.06.077.1.032.132.1c.036.026.1.077.1.077l.036.039.036.039.114.155.078.064s.012-.032.03,0a.424.424,0,0,0,.114.084s-.072.013,0,.032a.438.438,0,0,1,.12.052v.071s-.018.058,0,.077,0,.1,0,.1l.008.058v.232h.046V27.2a.166.166,0,0,1,.048.032.683.683,0,0,0,.06.052.194.194,0,0,0,.036.039c.018.013.078.026.1.058a.153.153,0,0,0,.054.052l.066.084s-.024.039,0,.058a.17.17,0,0,1,.036.077v.045l-.03.052c-.042.019-.006.013-.042.019s-.06-.026-.078,0,.006-.013-.018.026l-.024.039.018.122.012.135.036.064.006.084V28.3l-.018.052-.03.1-.006.077v.122c0,.019.018.013.03.045s.042.039.042.071a.732.732,0,0,0,.006.077l.012.1.006.122-.012.129.006.052a.559.559,0,0,1,.084.071c.012.019.06.161.06.161v.1a.029.029,0,0,0,0,.045c.024.026.024.045.042.071l.042.058a1.2,1.2,0,0,1,.06.129.174.174,0,0,1,.048.052c.012.026.024.026.054.051s.12.09.12.09-.012-.052.036,0a.737.737,0,0,0,.192.109s.066.032.084.045.042.013.06.032l.1.1s.06.013.078.045.1.064.1.064l.084.064.227.155v.077l.048.058v.071a1.113,1.113,0,0,0,.09.122l.018.013s.042.084.054.1l.036.058v.039l.084.116.048.1.036.052v.058l.048.051v.142l.048.071.042.058.028.069s-.012,0,0,.013.016-.017.012.017.007.039,0,.056,0-.026-.006.017l-.008.043s.01.056.015.077-.009.034,0,.056a.787.787,0,0,1,.033.082c.016.047.06.086.068.12a.152.152,0,0,0,.04.064s.008.017.052.026a1.217,1.217,0,0,0,.18,0l.032,0,.04-.038.052-.056.114-.079a.084.084,0,0,1,.03-.019c.018-.006.066-.09.066-.09l.114-.058a.3.3,0,0,1,.048-.006H105l.042.109v.18l.03.129.042.077s-.06.006,0,.039a.927.927,0,0,0,.192.058h.1l.066.045.1.09.054.052s-.024-.026,0,.019a.161.161,0,0,0,.066.077c.018.006.036.045.036.045l.03.058a.048.048,0,0,0,0,.032c.006.019.03.045,0,.064l-.03.019a.393.393,0,0,1-.066.058.272.272,0,0,0-.054.045.889.889,0,0,0-.15.084l-.024.026-.1.077V33.6l.024.052.036.045h.09l.048.045s.036-.039.054,0l.018.039.126.077s.018.058.045.064a.269.269,0,0,0,.075,0,.8.8,0,0,0,.084.052.413.413,0,0,0,.09,0l.03.045.042.064.072.071h.024l.066.122V34.3a.43.43,0,0,0,.06.045.377.377,0,0,1,.09.084c.018.026.054.09.054.09s.054,0,.06.032a.2.2,0,0,0,.036.1c.018.013-.012-.032.018.013a.367.367,0,0,0,.072.077h.024s.066-.019.09,0,.078.019.1.032.1.039.1.039v.077a.145.145,0,0,1,.048.039c.03.032.084.1.084.1l.06.058a.068.068,0,0,1,.03.032.472.472,0,0,0,.054.077v.045l.126.116v.032l.126.064.1.052.12.064s.012-.039.03,0,.18.09.18.09.042.019.048.039a1.081,1.081,0,0,0,.1.122h.036a.292.292,0,0,1,0,.1c-.012.019.005.052.005.052s-.029-.032-.041,0-.018.09.006.109l.024.019a.675.675,0,0,1,.114.077c.012.019.06.052.066.071s.084.142.084.142l.036.051v.1a.039.039,0,0,1,.03.039,1.112,1.112,0,0,1-.042.161l-.006.032-.018.045-.042.039-.036.045s-.03-.039-.048,0a.253.253,0,0,1-.084.077l-.048.032s-.012-.006-.024.032-.024.032.006.071l.114.148a1.162,1.162,0,0,0,.132.077c.024.006.108.013.132.058s.048.052.048.077a.32.32,0,0,0,.036.09v.052l.048.077h.042s-.03.039,0,.058.1.071.1.071l.036.045.042.071s.048.039.054.058a.291.291,0,0,0,.036.058.3.3,0,0,1,.054.064c.012.026.09.064.1.084s-.018-.019.012.019.06.006.1.058a.513.513,0,0,0,.072.084c.018.019-.012.032.054.039a2,2,0,0,0,.2,0l.1,0,.09.042h.144c.018,0,.06-.045.09-.052a.4.4,0,0,0,.084-.039.579.579,0,0,0,.078-.013.409.409,0,0,0,.084-.071.366.366,0,0,1,.114-.052.5.5,0,0,0,.072-.032l.06-.058a.15.15,0,0,1,.054-.052.443.443,0,0,0,.072-.045.546.546,0,0,1,.078-.071c.024-.013.018-.039.042-.052s.036-.064.072-.064.072-.019.078,0a.2.2,0,0,0,.036.051l.108.077s.006-.013.03.006a.217.217,0,0,0,.084.045c.03.006-.018.013.03.006a.6.6,0,0,1,.12-.019c.018.006.108.052.108.052l.042.019a1.166,1.166,0,0,0,.156-.026l.06-.026.054-.1.03-.019.186-.122.06-.032a.1.1,0,0,0,.03-.039.116.116,0,0,1,.084-.064c.048-.013.156-.084.174-.084a.688.688,0,0,0,.078-.013l.234.032.431-.212.1-.032.054.045h.245a.494.494,0,0,0,.084-.006c.024-.006.215-.026.257-.026s.1.006.114.006a.4.4,0,0,0,.084-.006l.066-.019.132-.006h.06l.066-.052.078-.019.06-.013.156-.032.078-.045h.233l.078-.058a.679.679,0,0,0,.078-.077c.018-.026.126-.1.144-.122s.054-.045.072-.071a1.248,1.248,0,0,1,.2-.109l.1-.135a.213.213,0,0,1,.06-.039.675.675,0,0,1,.1-.006l.06.026.114.032.162.058.054.058.042.058v.187l-.06.026-.048.052-.03.064-.018.052-.006.084v.064l.042.1.048.045.036.064-.006.1s.018.026-.018.039a.65.65,0,0,0-.1.058l.012.116.03.013c.048.052.078.077.078.077l.042.142v.071l-.036.058h-.03c-.018,0-.09.013-.1.039l-.012.026a.528.528,0,0,0-.1.064c-.024.026-.042.032-.042.058v.064l-.018.264a.622.622,0,0,0-.03.135,1.982,1.982,0,0,0,.012.206.757.757,0,0,1,.006.1.37.37,0,0,1,.024.077V39.4a.455.455,0,0,0-.066.064c-.018.026-.084.058-.09.077a.281.281,0,0,0-.024.064.246.246,0,0,1-.018.071c-.012.039-.048.084-.048.1s.036.013-.018.058-.108.058-.114.077a.579.579,0,0,0,0,.1l-.042.148.006.058-.042.1s-.006.045-.006.071.054.026-.006.071-.036.013-.06.045-.036.058-.066.071-.048-.045-.06,0a.139.139,0,0,1-.048.071l-.048.058-.06.058a.117.117,0,0,1-.03.045.188.188,0,0,0-.036.064l-.09.071s-.036.045-.048.064-.03.032-.036.052a.488.488,0,0,0-.006.084v.064a.536.536,0,0,1,.018.09.676.676,0,0,1-.006.109c-.006.026-.018.064-.018.064l-.018.052s-.072.071-.1.1l-.024.032a.93.93,0,0,0-.054.1.686.686,0,0,1-.06.109c-.024.026-.03-.013-.066.09s-.036.064-.066.135-.03.084-.042.1a.438.438,0,0,0-.024.071c-.012.032.03-.006-.036.084s-.09.077-.1.135a1.3,1.3,0,0,0-.006.142.517.517,0,0,0,.018.1.8.8,0,0,1,.006.1l-.036.1-.042.1a.476.476,0,0,0-.024.045c-.012.026-.036.039-.042.071a.477.477,0,0,1-.048.122c-.024.045-.03.064-.042.084a.1.1,0,0,0-.011.019l-.084.116a.658.658,0,0,0-.048.116.138.138,0,0,1-.048.084,1.894,1.894,0,0,0-.132.18s-.036.019-.042.039-.036.1-.036.1a.3.3,0,0,1-.054.084.333.333,0,0,0-.06.109.99.99,0,0,1-.054.1,1.083,1.083,0,0,0-.048.116.855.855,0,0,1-.048.109c-.018.032-.108.148-.126.187a.233.233,0,0,1-.06.084.681.681,0,0,1-.108.064.473.473,0,0,0-.132.084.169.169,0,0,0-.048.1.236.236,0,0,0-.042.064c-.012.032-.054.109-.054.109l-.006.045-.03.084s-.1.064-.1.1-.126.09-.126.09l-.024.09-.054.1-.018.071a.4.4,0,0,0-.06.058c-.012.019-.042.058-.042.058a.133.133,0,0,1-.042.045.872.872,0,0,0-.09.071.561.561,0,0,0-.06.058c-.018.019-.012.052-.054.077s-.06.09-.078.116a.423.423,0,0,1-.072.084c-.036.032-.084.071-.084.071l-.054.045c-.024.019-.1.071-.1.071l-.042.032-.06.045-.036.039s-.03.039-.048.058-.084.1-.084.1l-.042.071-.188.1a1.579,1.579,0,0,1-.224.189.269.269,0,0,0-.1.086,1.5,1.5,0,0,0-.255.155.807.807,0,0,1-.128.1l-.16.1s-.1.1-.16.189a.67.67,0,0,1-.208.155l-.1.1h-.128a2.36,2.36,0,0,0-.223.223,1.274,1.274,0,0,1-.112.137.378.378,0,0,1-.1.12.933.933,0,0,0-.192.189,2.031,2.031,0,0,0-.16.258l-.08.086s-.048.017-.128.137a.8.8,0,0,1-.224.206.836.836,0,0,1-.16.155c-.08.086.032-.017-.08.086s-.016.034-.112.1.016-.069-.1.069-.112.189-.16.24-.064.223-.1.206-.08.034-.112.086.144-.24-.032.052l-.176.292-.048.155a.186.186,0,0,0-.064.1c-.016.069-.048.223-.064.275s.048-.069-.016.052.016.017-.064.12a1.672,1.672,0,0,1-.129.151l-.042.106-.033.039-.018.035a1,1,0,0,1-.1.093h-.042l-.057-.035-.054-.039s-.027-.023-.03-.035-.021-.055-.021-.055-.006-.026-.021-.032a.724.724,0,0,0-.075-.035c-.009,0-.054.019-.066.023a.342.342,0,0,0-.057.048.225.225,0,0,1,.027.048c.006.019.021.029.027.042a.366.366,0,0,0,.048.052s.027.01.03.019a.843.843,0,0,0,.054.074l.024.035-.024.106-.033.052-.06.048a.349.349,0,0,1-.045.026l-.045.026a.2.2,0,0,0-.03.029.232.232,0,0,1-.03.052.1.1,0,0,1-.051.023c-.03.006-.087.013-.114.016s-.1.013-.111.016-.015-.01-.024,0-.1.1-.111.106a.29.29,0,0,0-.048.058c-.006.016,0,.035-.018.039s-.075-.013-.09,0a.059.059,0,0,0-.021.029.17.17,0,0,0,0,.087.2.2,0,0,0,.054.026c.009,0,.054.026.054.026a.513.513,0,0,1-.006.09.16.16,0,0,1-.06.052c-.036.019-.048.013-.054.042a.274.274,0,0,0,.006.1.976.976,0,0,1,.033.132c0,.013-.036.1-.06.1a.7.7,0,0,1-.117,0,.124.124,0,0,1-.056.039c-.032.009-.008-.034-.032.009a.342.342,0,0,0-.024.129l.024.06.016.12-.008.069-.024.069s.072.026-.032.051-.072-.034-.1.026a.2.2,0,0,0-.032.12.286.286,0,0,0,.008.086.4.4,0,0,1,.016.086c0,.026-.008.077-.04.094s-.056.069-.08.094.024-.009-.024.026a.2.2,0,0,0-.064.12.553.553,0,0,1-.048.086l-.1.086-.064.043a.5.5,0,0,1-.008.094c-.008.026-.04.094-.04.094a.459.459,0,0,1-.032.137.425.425,0,0,0-.032.129v.043c0,.026.008.094.008.12v.094a.136.136,0,0,1-.016.086.726.726,0,0,1-.08.086s-.016-.069-.04,0,.024,0-.024.069a.844.844,0,0,0-.088.155.826.826,0,0,0-.032.2l.008.086a1.128,1.128,0,0,1,.04.112c.008.034.048.069.072.1a1.28,1.28,0,0,0,.12.12s.056.06.056.086.152.172.16.2.056.043.056.043a.213.213,0,0,1,.072.051.671.671,0,0,0,.128.137c.024.009.168.043.168.069a.221.221,0,0,1-.032.094.484.484,0,0,0-.032.069l-.064.077-.128.172s-.032-.009-.032.077v.086s.08.129.072.155-.04.1-.04.1-.016.017,0,.051.239,0,.239,0,.024.073.04.015.072-.23.072-.23l.048-.06s.008-.077.056-.077.064.017.064.043-.016.086-.016.137.064.086.064.086a.122.122,0,0,1,.032.06c0,.026-.016.112-.016.112h-.072s-.048.086-.064.112l-.016.026s-.112.06-.16.077a.1.1,0,0,1-.08,0l-.144.112-.016.06v.129s.016.043.024.069.056.129.056.129l.024.112.04.189.064.137a.245.245,0,0,1,.024.112,1.142,1.142,0,0,0-.016.155,1.516,1.516,0,0,0,.215.24s.032.017.032.043.016-.034,0,.026-.032.155-.032.155-.008,0,.008.06a1.742,1.742,0,0,0,.1.215.234.234,0,0,0,.08.086s.1-.043.1,0,.128.112.168.129a.2.2,0,0,0,.1,0s.048.094.056.12.048.034.064.077a.849.849,0,0,1,.016.12,1.13,1.13,0,0,1,.048.172c.008.06.048.052.088.137a.993.993,0,0,1,.08.18c0,.026-.056.069-.064.094a.5.5,0,0,0-.008.094s-.04-.034-.064,0-.072.06-.072.086v.1a.063.063,0,0,1,0,.077c-.032.034-.08-.06-.1,0s-.088.009-.08.1.056.1.08.1a.2.2,0,0,0,.072-.034s.1-.017.1.034-.008.155-.008.155v.052a.34.34,0,0,0,.04.094.208.208,0,0,1,.008.094c-.008.051-.072.215-.072.24a.6.6,0,0,0,.016.094c.008.043.056.361.056.361l.1.094a.426.426,0,0,1,.064.112c0,.026-.048.112-.056.163s-.024.112-.024.112.008.111.016.146l.024.1a.357.357,0,0,0-.056.155v.112l.064.1s.032.06.056.12.12.095.136.137a1.365,1.365,0,0,1,.024.215l.032.146.032.094v.1l-.024.129v.052l-.024.086-.016.172s-.008.077-.008.12-.032.206-.032.206l-.016.077a.379.379,0,0,1-.04.051.364.364,0,0,0-.064.1.333.333,0,0,1-.04.069l-.184.232-.016.06-.184.258c-.024.034-.008.1-.032.129s.1-.077-.024.026-.327.275-.327.275-.016.137-.056.163a1.733,1.733,0,0,0-.176.215l-.112.052s-.072-.026-.1,0a.291.291,0,0,1-.152.077c-.056,0-.048.043-.088.052s-.351.1-.383.112-.048-.026-.072,0-.1.06-.128.094-.032.077-.088.1a.759.759,0,0,1-.144.069.694.694,0,0,0-.16.1c-.032.017-.136.086-.136.086a1.828,1.828,0,0,0-.279.155,1.258,1.258,0,0,0-.1.129.622.622,0,0,1-.08.129,1.7,1.7,0,0,0-.12.172l-.016.051a.506.506,0,0,1-.08.206,1.285,1.285,0,0,0-.136.232,1.1,1.1,0,0,1-.136.146l-.136.086a.369.369,0,0,1-.064.052.881.881,0,0,1-.128.094.622.622,0,0,0-.136.112l-.183.172-.1.172-.08.086-.128.069-.208.24-.1.086s-.1-.034-.1.086.016-.017,0,.12a2.584,2.584,0,0,1-.1.292c0,.052-.048.1,0,.172s.176,0,.176,0l.144.1s.08-.1.08,0-.016.069.048.189a1.79,1.79,0,0,0,.128.206l-.024.112-.024.086a.187.187,0,0,0-.008.069.1.1,0,0,0,.056.094c.032.017.16.069.16.069l.128.043.024.043-.008.086v.06s0-.043-.032,0a.289.289,0,0,0-.032.043.327.327,0,0,0-.056.112s-.072.06.008.069.024.009.08.009h.152a.187.187,0,0,1,.016.069v.112l.008.1a.188.188,0,0,0-.032.1.382.382,0,0,1-.016.146c-.016.034-.008.077-.024.1s-.024.017-.032.086-.016.129.024.155a1.157,1.157,0,0,0,.215.06.092.092,0,0,1-.008.077.245.245,0,0,0-.04.077c-.008.026-.088,0-.088,0l-.048.086-.056.129v.052l.016.094a.357.357,0,0,0,0,.1,1.112,1.112,0,0,0,.056.18l.128.112v.06a.39.39,0,0,1-.008.051c-.008.043-.024.18-.024.18a.263.263,0,0,1-.008.051.734.734,0,0,1-.04.12c-.024.06-.04.1-.04.1l-.088.077-.056.051-.1.094-.016.043-.072.094-.1.094-.16.112s.048.009-.04.034-.208.052-.208.052a.342.342,0,0,1-.08.043,1.192,1.192,0,0,0-.152.069c-.032.017-.208.129-.208.129a.108.108,0,0,0-.1,0c-.048.026-.112.052-.152.069s-.305.1-.305.1l-.07.06a.073.073,0,0,1-.024.043c-.024.026-.04.051-.064.077s-.144.069-.168.094a.934.934,0,0,0-.064.112c-.032.052-.032.069-.056.112a.224.224,0,0,0-.048.12.679.679,0,0,1-.024.137s0,.069-.024.069a.093.093,0,0,0-.08.069.8.8,0,0,0,.008.146c0,.026.032,0,.032,0l.056-.112a.169.169,0,0,1,.1-.034h.16l.056.026s-.008.135-.008.132a.5.5,0,0,0-.016.049c-.008.026-.04.043-.04.086a1.778,1.778,0,0,0,0,.206l.008.043v.146a.376.376,0,0,1-.016.077l.016.094-.072.3-.048.129-.1.167a.118.118,0,0,0-.024.077.664.664,0,0,1,0,.155c-.012.039.012.051-.012.129a.9.9,0,0,0-.024.232v.193l-.024.116-.132.155-.084.142s-.012-.064-.06,0-.12.039-.2.116-.215.206-.215.206a.594.594,0,0,0-.06.077c-.024.039-.072.052-.12.142s-.108.206-.108.206l-.12.116a.671.671,0,0,0-.1.1.951.951,0,0,0-.132.245,1.031,1.031,0,0,0,0,.193v.1a.3.3,0,0,1-.024.142c-.024.039-.048.09-.084.142a.27.27,0,0,0-.06.116l-.012.052-.06.1-.072.27a.238.238,0,0,1-.084.116c-.06.039-.2.142-.2.142l-.084.167-.156.167-.024.1-.048.09a.437.437,0,0,1-.156.142l-.06.077s.024.013-.024.064-.1.116-.1.116l-.036.077a.682.682,0,0,1-.036.064c-.024.039.108-.1-.024.039a2.3,2.3,0,0,0-.275.322c-.012.039-.1.064-.108.1a.881.881,0,0,1-.12.155l-.156.064-.144.116-.012.077s.024.09-.012.116a.539.539,0,0,0-.084.09s-.06-.09-.108,0,.024-.013-.048.09.024.039-.072.1-.168.1-.168.1h-.1l-.072.09a.28.28,0,0,1-.108.1c-.084.051-.132.064-.168.116s-.084.109-.084.109l-.054.051-.036.039s-.018-.019-.054,0-.036.032-.072.032H95.37a.179.179,0,0,1-.06,0c-.018-.006-.042.025-.078,0a.244.244,0,0,0-.108-.029c-.018,0,.024-.045-.018,0a.4.4,0,0,0-.06.09c-.018.026-.012.026-.018.071s.012.026-.006.077.006.039-.024.09-.012.045-.1.052-.1.013-.138,0a.144.144,0,0,1-.09-.052c-.024-.032.006-.058-.06-.071a.3.3,0,0,0-.12-.013c-.024.006.024-.052-.024.006s-.06.077-.06.1.018.019-.018.084.012.064-.066.084-.132-.026-.168,0-.066,0-.108,0-.054.027-.156-.037a.371.371,0,0,0-.18-.064h-.078c-.018,0-.114.013-.138.013s-.15-.026-.15-.026l-.1.077L93.2,85.5s-.006-.013-.036.032-.048.052-.078.052-.024-.064-.054,0l-.03.064s-.054.039-.06,0,.006-.064-.006-.084a.487.487,0,0,0-.078-.109.3.3,0,0,0-.066-.006h-.048a.351.351,0,0,0-.066-.006c-.036,0,.006-.013-.036,0s-.03-.019-.042.013-.018.064-.06.084a.261.261,0,0,1-.078.026c-.03.006-.042.019-.078.026s-.09-.013-.126.019l-.036.032-.038.082-.048.086-.04.1a1,1,0,0,1-.1.06h-.192a.093.093,0,0,0-.072,0c-.032.017-.064-.06-.088,0s-.008.094-.032.1-.072-.017-.1,0-.072-.043-.072-.043a.3.3,0,0,0-.088-.043h-.024l-.072.034-.048.017-.04.037s.008-.091-.04,0-.088.151-.136.151h-.088l-.016.094h-.032l-.08.1a.658.658,0,0,1-.08.146H90.45c-.04,0-.048.009-.08,0s-.08-.043-.1-.051-.032-.052-.032-.052-.08-.069-.112-.1.016.009-.032-.034,0-.026-.088-.043a1.035,1.035,0,0,0-.215-.009l-.008-.1s.024-.086,0-.086a.646.646,0,0,0-.128.06s-.024.1-.048.1,0,.06-.024,0a.741.741,0,0,1-.04-.12c-.008-.034-.048-.129-.048-.129l-.04.009-.016.094-.032.129.016.034s-.008.06-.032.052.024.026-.024-.009a.543.543,0,0,1-.1-.129l-.032-.094L89.2,86.02l-.04-.06v-.043l.032-.052.04-.06.024-.069a1.126,1.126,0,0,0,.016-.2l-.04-.034-.032-.026-.056-.077-.056-.12-.072-.069-.112-.1-.048-.043-.1-.129-.04-.043-.016-.086-.056-.189-.016-.137a.365.365,0,0,1,.168-.026l.048.086a.878.878,0,0,0,.12.12c.024.009.072-.129.072-.129v-.129a1.269,1.269,0,0,1-.024-.146v-.266l-.128-.18-.064-.146-.088-.1-.088-.086-.072-.043-.072-.077-.1-.1s-.024-.034-.048-.034-.1-.069-.1-.069l-.08-.077-.08-.086-.058-.107-.06-.109-.114-.109-.024-.071a1.441,1.441,0,0,1-.1-.135c-.006-.019-.024-.045-.03-.071s-.024-.129-.024-.129l-.018-.077-.114-.193-.042-.109-.06-.122-.048-.142-.036-.071-.078-.116-.078-.09-.126-.109-.06-.109-.066-.1-.048-.129-.024-.039a1.567,1.567,0,0,0-.132-.122c-.024-.013-.054-.058-.072-.071a.5.5,0,0,1-.078-.084l-.066-.1-.054-.071-.042-.058-.1-.071-.072-.084-.186-.167-.03-.045-.1-.116-.042-.116-.036-.1-.018-.11L85.8,79.36l-.072-.174-.042-.1-.018-.071-.036-.084-.03-.116-.052-.071-.056-.064a.207.207,0,0,0-.042-.052.657.657,0,0,1-.054-.051l-.036-.058-.036-.09a.256.256,0,0,0,0-.1.555.555,0,0,1-.03-.09v-.09l-.048-.084a.271.271,0,0,0,0-.071,1.016,1.016,0,0,1,0-.135l0-.058-.069-.1V77.59l-.015-.055s.009-.016,0-.026-.018-.058-.027-.061-.012-.039-.018-.048a.334.334,0,0,0-.024-.045.461.461,0,0,1-.045-.071.223.223,0,0,1,0-.045l-.015-.029-.024-.055-.021-.035-.024-.051-.03-.042-.018-.032-.036-.061s-.027-.032-.027-.042-.021-.08-.021-.08l-.027-.023-.066-.019s-.015-.035-.018-.048a.587.587,0,0,1,0-.074v-.084s-.02-.016-.02-.029V76.46a.239.239,0,0,0-.027-.052.167.167,0,0,1-.024-.058.254.254,0,0,1-.021-.074v-.071s.009-.026,0-.039a.257.257,0,0,1,0-.084l-.027-.048a.553.553,0,0,1-.045-.068l-.018-.048v-.09a.166.166,0,0,1,0-.039c0-.016.036-.1.039-.106s.009-.035.009-.035l.027-.016.021-.006.1-.013.03-.013.06-.042a.2.2,0,0,0,.015-.074c0-.01-.024-.1-.024-.1l-.021-.01-.048-.051-.033,0a.176.176,0,0,1-.042-.013.725.725,0,0,1-.051-.08l0-.019-.033-.064a.215.215,0,0,1-.027-.048.219.219,0,0,0-.025-.048V75l-.059-.084-.03-.055-.036-.071-.03-.032-.063-.042-.039-.032-.024-.026-.081-.071v-.019l-.021-.032a.532.532,0,0,0-.069-.068.4.4,0,0,1-.06-.058A.2.2,0,0,0,84,74.377a.515.515,0,0,1-.042-.071l-.048-.064-.027-.058-.045-.058-.048-.048s-.021-.042-.024-.052-.045-.087-.045-.087l-.033-.026-.063-.048-.051-.045s.012-.006,0-.016-.069-.077-.069-.077l-.018-.013-.051-.1v-.029l-.03-.045-.03-.055V73.47l-.015-.032-.027-.055-.039-.074-.039-.058-.042-.1-.093-.105-.088-.112v-.052l-.056-.069-.048-.077-.048-.077-.04-.086v-.043s-.048-.06-.08-.094a1.279,1.279,0,0,1-.088-.12l-.064-.051s-.112-.155-.128-.18L82.4,71.95a.341.341,0,0,1-.04-.094.746.746,0,0,0-.056-.137.232.232,0,0,0-.064-.077.942.942,0,0,1-.1-.069.111.111,0,0,0-.04-.026,2.1,2.1,0,0,0-.184-.112.92.92,0,0,1-.128-.034h-.048l-.1.026a.117.117,0,0,1-.072.043.333.333,0,0,1-.1.017.118.118,0,0,1-.1-.052v-.069l.064-.137V70.92l-.064-.086v-.326l-.144-.24v-.395l-.128-.1-.064-.12v-.155l.064-.206.08-.069.08-.069.032-.1-.016-.155v-.275a1.151,1.151,0,0,0,0-.24.764.764,0,0,1,.016-.223l.08-.1a.136.136,0,0,0,.032-.086c0-.052-.1-.412-.1-.412v-.687l.08-.034.032-.1-.048-.292-.08-.155.032-.094V66.1l.088-.129.056-.043.048-.077.048-.077c.016-.026.048-.086.048-.086l.016-.094s.008-.06.008-.086.008-.1.008-.1.024-.06.032-.086a.241.241,0,0,1,.088-.094.533.533,0,0,0,.088-.077.331.331,0,0,1,.056-.06c.032-.026.128-.129.128-.129l.088-.052.088-.137.008-.043.016-.1.024-.094v-.18l.04-.129.016-.077v-.06a.068.068,0,0,1-.016-.043,2.02,2.02,0,0,0-.064-.206l-.024-.172.016-.455V63.16l-.056-.129s-.048-.06-.064-.086,0-.043-.04-.112-.024,0-.04-.069-.064-.12-.08-.18-.072-.163-.08-.189-.024-.026-.048-.06a.891.891,0,0,0-.064-.077s-.056-.034-.064-.06a.181.181,0,0,0-.048-.069c-.024-.026-.088-.077-.088-.077A.39.39,0,0,0,81.527,62a1.639,1.639,0,0,1-.08-.215s-.008-.034-.016-.06a.959.959,0,0,0-.072-.12.415.415,0,0,0-.072-.069s-.032-.077-.04-.1a.619.619,0,0,0-.056-.094s-.088-.095-.112-.112a.181.181,0,0,1-.04-.077l-.08-.086-.046-.086v-.058a.223.223,0,0,1,0-.09c.012-.019-.005-.1-.005-.1l.065-.09a.337.337,0,0,1,.072-.1.587.587,0,0,0,.084-.071.7.7,0,0,1,.1-.064.58.58,0,0,0,.066-.174v-.116s-.03-.064-.042-.1-.048-.135-.048-.135l-.09-.1a.691.691,0,0,1-.1-.116l-.048-.032-.059-.109-.084-.071a.935.935,0,0,1-.078-.142.368.368,0,0,0-.054-.09l-.03-.052-.042-.109s-.018-.039-.03-.058l-.012-.019-.06-.1v-.045l-.078-.116s-.042-.019-.042-.039-.042-.071-.042-.071l-.078-.109-.036-.071-.078-.09-.036-.052s.036-.058,0-.09a.621.621,0,0,1-.066-.071l-.048-.052-.108-.045-.1-.052s.024-.019,0-.032a.489.489,0,0,0-.09-.026l-.114-.006s.006.019-.042,0-.126-.058-.126-.058-.066-.019-.078-.039.042-.058,0-.077-.072-.142-.072-.142.018-.058.036-.058a.689.689,0,0,0,.078-.013l.054-.032.036-.084s.012-.052,0-.071l-.012-.019s-.036-.032-.054-.051a.8.8,0,0,1-.06-.1l-.036-.052-.042-.129-.042-.026-.072-.116s-.06.026-.078-.006-.06-.109-.066-.129a.072.072,0,0,1,0-.039l-.084-.09a.5.5,0,0,0-.036-.045c-.018-.019-.084-.135-.1-.155l-.042-.064-.048-.026-.048-.064-.048-.064-.066-.064a.375.375,0,0,0-.084-.071,1.043,1.043,0,0,1-.138-.109.046.046,0,0,0-.036-.032,1.083,1.083,0,0,1-.132-.058l-.07-.084-.048-.052-.1-.2v-.052a.653.653,0,0,0-.08-.12.437.437,0,0,0-.1-.034l-.088-.043s.008.017-.056-.043a.784.784,0,0,1-.112-.137l-.072-.043-.072-.051a.447.447,0,0,0-.08-.069c-.032-.017-.112-.069-.112-.069l-.072-.043v-.06l-.112-.155-.04-.034v-.043s.048-.017.1-.034a.411.411,0,0,0,.1-.052s.048-.026.024-.043a.68.68,0,0,0-.08-.043l-.04.043s-.024.043-.056.052a.239.239,0,0,1-.056.009h-.1s.008-.009-.032-.026l-.04-.017-.064-.034-.072-.026-.056-.052s.04-.009,0-.051a.508.508,0,0,1-.072-.112.685.685,0,0,0-.08-.043l-.024-.009s-.04-.077-.08-.086-.04.137-.1-.051l-.056-.189v-.18l-.088-.146-.04-.017-.088-.06-.064-.112-.04-.069a.2.2,0,0,1-.08-.069l-.12-.215v-.043s-.152-.232-.16-.258-.048-.009-.008-.026a.4.4,0,0,1,.136-.009.466.466,0,0,1,.064.043.351.351,0,0,1,.08.069.13.13,0,0,0,.088.06.28.28,0,0,0,.088-.009c.024-.009.064-.06.064-.06a.274.274,0,0,1,.056-.069l.088-.069.088-.12a.053.053,0,0,0,.008-.034.645.645,0,0,1,.04-.12l-.048-.077-.016-.026s-.008-.043-.016-.069-.04-.12-.04-.12l-.032-.1a.225.225,0,0,0,0-.077c-.008-.034-.016-.12-.016-.12v-.052s0-.017.032-.017.12.152.12.152a.036.036,0,0,1,.064,0,.76.76,0,0,0,.088.1.6.6,0,0,1,.128.069c.024.026.112.009.112.009s-.008-.06-.04-.069-.032-.043-.064-.051-.072-.048-.1-.054-.064-.058-.064-.058l-.064-.069-.072-.129-.016-.146a.055.055,0,0,1,.04-.026c.024,0,.048.026.08.043a.474.474,0,0,0,.12.026c-.032-.052-.128-.189-.128-.189v-.043l.008-.094.04-.06-.1-.069a.059.059,0,0,0-.048-.026.145.145,0,0,1-.072-.034l-.1-.034-.008-.086a.877.877,0,0,0,.136-.129c.008-.026.04-.051.048-.094s.04-.026.04-.06a1.152,1.152,0,0,1,.056-.18s.056-.043.032-.077a.132.132,0,0,1-.024-.069s-.024-.052-.048-.052-.08.009-.1.009-.088.009-.144.009a.093.093,0,0,1-.08-.043l-.056-.077a.611.611,0,0,1-.056-.086.114.114,0,0,1,0-.077,1.106,1.106,0,0,0,.08-.129.724.724,0,0,1,.08-.112l.072-.069.064-.1s.032-.034.056-.034.112-.009.168-.009h.056l.08-.077-.008-.094-.008-.137.008-.163a.209.209,0,0,1,0-.077c.008-.043.064-.077.064-.077s.048.009.056-.017.032-.052.016-.077-.072-.1-.072-.1l-.04-.043-.048-.06a.092.092,0,0,0-.04-.034c-.024-.009-.064-.026-.072-.06s-.016-.129-.016-.129v-.06s-.048-.094-.072-.094a.149.149,0,0,1-.056-.017,1.064,1.064,0,0,1-.024-.137,1.509,1.509,0,0,1,.064-.206s.128.009.144-.017l.016-.026s-.04-.112-.064-.112h-.1l-.072.026-.008.043a.3.3,0,0,1-.008.069c-.008.026-.056.052-.056.052l-.032.052-.056.017a.209.209,0,0,1-.176-.06l-.088-.043s-.056-.009-.088-.017a1.083,1.083,0,0,1-.152-.094.6.6,0,0,1-.073-.026.124.124,0,0,0-.047-.009h-.271c-.024,0-.048-.009-.1-.009s-.128-.009-.168-.009h-.04s-.056-.017-.064.009l-.008.026v.052l-.042.06s.048.058,0,.058a.61.61,0,0,1-.132-.026.073.073,0,0,0-.036-.013.613.613,0,0,1-.1-.039.643.643,0,0,1,0-.155l.036-.045v-.122s-.053-.077-.041-.1a.524.524,0,0,0,0-.135l-.059-.077s-.1.019-.1.039v.071a.5.5,0,0,1,.054.1v.019l.018.071.012.077v.045l-.018.039.012.084-.036.026h-.132l-.03-.058a.455.455,0,0,0,0-.129c-.012-.026.012-.064,0-.09a.58.58,0,0,1,0-.142l0-.045v-.071a.348.348,0,0,0-.041.064c-.006.019-.024.09-.03.116s.006.052,0,.071a.545.545,0,0,0,0,.1v.09s.027.019.027.039.036.045.036.045.018.019,0,.032a.494.494,0,0,1-.063.032l-.069.013a.069.069,0,0,0-.048-.019.592.592,0,0,0-.072.006l-.048.006c-.042.006-.072.013-.072.013s-.066.032-.09.019,0-.1,0-.1l-.114.013v.071a.038.038,0,0,1-.054.013c-.036-.019.012.013-.036-.019a.655.655,0,0,0-.132-.071.25.25,0,0,1-.072-.052c-.018-.013-.006-.032-.03-.045s-.048.006-.084-.045a.658.658,0,0,1-.066-.129.9.9,0,0,1-.042-.116L73,47.1a.139.139,0,0,0,0-.09c-.018-.039-.066-.148-.078-.167s.03-.039,0-.071-.018-.045-.036-.09.03-.058,0-.077a.1.1,0,0,1-.042-.084v-.232s.018-.039,0-.058,0-.077,0-.077l-.008-.058a.143.143,0,0,0,.044-.019.515.515,0,0,0,.1-.052c.03-.026.084-.077.084-.077v-.058h-.042s.03,0-.03.019-.132.039-.132.039l-.054.045s.048.019,0,.032l-.048.013-.03-.058v-.116l-.036-.019-.042-.032a.188.188,0,0,1,.078-.064.693.693,0,0,0,.1-.026.344.344,0,0,0,.066-.071l.006-.032h-.048l-.042.032-.084.019a.2.2,0,0,1-.072.032h-.024a.218.218,0,0,1-.06-.045c-.012-.019-.006,0-.03-.077L72.51,45.5l.174-.1.024-.077-.072.039s-.03.026-.048.026a.48.48,0,0,0-.078.019l-.108.026-.054-.1-.072-.09v-.1a.092.092,0,0,1-.06-.052.275.275,0,0,1,0-.1l-.108-.09a.7.7,0,0,0-.06-.052,1.294,1.294,0,0,0-.144-.129.9.9,0,0,0-.156-.052l-.072-.077a.137.137,0,0,0-.06-.013h-.239a.2.2,0,0,1-.251-.142v-.1a.432.432,0,0,0,.108-.013l.036-.013s-.024-.116-.06-.116a1.01,1.01,0,0,0-.192.039c-.036.013,0-.064-.036.013l-.036.077.06.1s.048.077,0,.077-.072-.039-.12-.039h-.634v-.052h-.12l-.263.013a.175.175,0,0,1-.12,0,.483.483,0,0,0-.144-.052.737.737,0,0,0-.132-.013h-.359l-.156.013V44.3l.1-.219V44l-.1-.052v-.052l-.12-.064-.144-.064s-.012-.013-.1,0-.215.026-.215.026l-.06.077-.06.142a1.185,1.185,0,0,0-.06.129l-.012.039h-.215l-.144-.026s-.156.039-.192,0l-.108-.116-.06-.077a.559.559,0,0,0-.2.064l-.1.09-.132.064-.132.013h-.1a.193.193,0,0,0-.156,0,.463.463,0,0,0-.168.1.281.281,0,0,1-.18.064c-.072,0-.084-.013-.168-.013h-.084c-.084,0-.227-.013-.227.026v.1c-.084.026.012.039-.084.026s-.227-.064-.275-.064h-.12v.077l-.108.09-.144.064s.192.039,0,.039h-.192s-.06-.1-.084-.142-.024-.142-.12-.142h-.1a.969.969,0,0,1-.1-.026.678.678,0,0,1-.108-.064s.1-.013,0-.039l-.1-.026-.06-.09s-.024-.013,0-.064.108-.052.024-.052a.3.3,0,0,0-.156.052v.039l-.132-.09a.186.186,0,0,1-.132-.039l-.084-.052s-.012.013.06-.077a.812.812,0,0,1,.144-.142s.1-.167-.048-.077a2.732,2.732,0,0,0-.239.167l-.108.077h-.108s.048-.026,0-.09l-.048-.064s0-.1-.1-.1h-.18v.09l-.144.026-.18-.013-.144-.052c-.12-.052-.192-.09-.192-.09h-.06l-.06.052c-.1.026-.263-.116-.263-.116a.281.281,0,0,0-.12.039.526.526,0,0,1-.311.026.339.339,0,0,0-.12-.026s-.024-.026-.1,0a.961.961,0,0,1-.251.026.449.449,0,0,0-.132,0c-.048.013-.12.039-.12.039a.837.837,0,0,1-.192.026l-.2.026s.012.013-.06.026-.371.026-.479.026h-.108v.064a.444.444,0,0,1-.144.077c-.084.026-.1.052-.156.064a.425.425,0,0,1-.156-.013v-.064a.556.556,0,0,0-.12-.077c-.06-.026-.168-.09-.2-.1s.06.077-.036-.013-.12-.155-.156-.155.048.064-.036,0-.18-.193-.215-.219-.06-.039-.1-.064a.288.288,0,0,1-.1-.116.621.621,0,0,0-.156-.155.561.561,0,0,1-.108-.077c-.036-.039.012.026-.036-.039a1.709,1.709,0,0,0-.263-.206s.048-.013,0-.052-.06,0-.108-.1-.108-.155-.12-.232a2.324,2.324,0,0,0-.06-.232l-.12-.167L57.4,41.7l-.084-.077a1.706,1.706,0,0,1-.251-.142,1,1,0,0,1-.1-.167v-.142s.108.013-.06-.129-.227-.142-.227-.142l-.132-.142s.036,0,0-.039-.012-.026-.072-.1a.3.3,0,0,1-.06-.167l-.132-.039-.1-.039s-.1-.064-.132-.09a1.024,1.024,0,0,0-.12-.064.29.29,0,0,1-.072-.077,1.041,1.041,0,0,0-.12-.129l-.084-.09-.156-.155-.215-.09a.361.361,0,0,0-.06-.077c-.048-.052-.18-.245-.227-.3s.12-.064.12-.064a.206.206,0,0,0,.132-.142l.012-.039s.024-.1-.024-.1h-.12l-.128-.039v-.361l.128-.052h.1a.711.711,0,0,0,.168,0l.084-.013s.084-.116.012-.116h-.215c-.012-.064-.024-.142-.024-.142l-.024-.232-.048-.167-.12-.283s.007.052-.057-.052-.051-.039-.063-.1a.842.842,0,0,1,0-.18.229.229,0,0,0-.005-.052c-.007-.039-.1-.064-.126-.1s-.072-.09-.1-.129a.292.292,0,0,0-.084-.1c-.06-.051-.18-.155-.215-.193s-.048-.077-.084-.116a.387.387,0,0,1-.06-.129s-.012,0,0-.064-.047-.077-.005-.116-.019-.026.041-.039.108.026.12-.013-.048-.116-.048-.116h-.056s-.08-.009-.112-.009h-.032A.093.093,0,0,1,54.136,36a.212.212,0,0,1,0-.1l-.04-.069s.048-.052,0-.052-.064,0-.08.026L54,35.827s-.024.052-.056.052-.1-.052-.1-.052v-.034l-.072-.069-.056-.043V35.6l-.088-.1L53.6,35.45v-.026l-.112-.017-.048.017-.04.077v.043l-.1.043s-.008.034-.04,0a.7.7,0,0,1-.072-.172s-.008-.009-.04-.009h-.263l-.04-.017-.072-.06v-.163l-.056-.043s-.024-.009-.056-.017-.088-.086-.088-.086v-.069l.056-.172.1-.043.064-.129.056-.026s.231-.017.247.017.016.06.048.086.1.069.128.052.024-.12.024-.12l-.088-.094a.944.944,0,0,0-.176-.155h-.024l-.072-.06-.032-.069-.048-.155a.092.092,0,0,0-.04-.034c-.024-.009-.064-.017-.064-.017s-.072-.017-.08-.043a1.9,1.9,0,0,0-.048-.206l-.016-.026.064-.215.008-.086.064-.112s.016-.129.048-.155.016-.017.072-.129.08-.155.08-.155l.14-.077c.1.039.323.167.323.167h.144l.06-.013h.419s.1.026.132,0a.935.935,0,0,1,.168-.064h.228l.1.193s.012,0,.1.077a.854.854,0,0,0,.156.116l.12.051a2.105,2.105,0,0,0,.227.064H55.4a.933.933,0,0,0,.144-.013l-.1-.064a.576.576,0,0,1-.371-.064l-.156-.1a.151.151,0,0,0-.036-.116c-.048-.064-.108-.129-.108-.129l-.084-.1-.084-.013-.084-.026H54.3c-.048,0-.06.026-.12.026a.583.583,0,0,0-.168.026.6.6,0,0,1-.132.013h-.108l-.12-.026a.387.387,0,0,0-.12-.052h-.036l-.12-.039s-.036-.1-.084-.1h-.108l-.072-.013.06-.193-.072-.064s-.012-.1-.012-.167a.808.808,0,0,1,.012-.129s.12.09-.024-.116l-.144-.206-.108-.219-.108-.09-.084-.052-.132-.077v-.1c0-.039.036-.206.084-.206a.707.707,0,0,1,.239.052,1.749,1.749,0,0,1,.2.1l.108-.052.024-.18.144-.155.251-.167.036-.064.06-.167.12-.206s-.024.026.024-.077.06-.18.108-.27l.048-.09.192-.167s.12-.193.132-.232a2.827,2.827,0,0,1,.168-.258.56.56,0,0,1,.1-.116,1.7,1.7,0,0,0,.168-.219l.036-.27.06-.142.036-.142v-.309s.012-.116.012-.206v-.232a1.1,1.1,0,0,0-.012-.142l-.192-.155-.132-.077v-.1l.156-.155.072-.052-.048-.167.048-.09a.838.838,0,0,0,.132.026c.036,0,.108.129.156,0l.048-.129-.012-.18-.1-.18a.146.146,0,0,0,0-.077,1.089,1.089,0,0,0-.12-.167l-.108-.077-.072-.219s.012-.129-.036-.18l-.239-.258L54.5,24.9l.06-.064.156-.193.072-.1s.072-.09.108-.1A1.159,1.159,0,0,0,55,24.385s.048-.09.1-.09.251-.026.251-.026l.036-.1.012-.193a1.36,1.36,0,0,1,.12-.283.467.467,0,0,0,.1-.155,1.078,1.078,0,0,0,.048-.167l-.036-.09s-.036-.09.012-.129a2.224,2.224,0,0,0,.168-.18l.06-.026.156-.09a.7.7,0,0,0,.132-.039.74.74,0,0,1,.156-.039l.132-.116.263-.142.012-.142V22.17l-.024-.258s0-.129.036-.142.12-.219.12-.219-.024-.052.012-.064a.538.538,0,0,0,.108-.077l.132-.18.024-.155a.4.4,0,0,0,.06-.116c.012-.052.1-.232.156-.245a.528.528,0,0,1,.144,0c.036,0,.12.064.12.064a.6.6,0,0,0,.1.013c.036,0-.048.064.036,0a1.253,1.253,0,0,1,.192-.116l.2-.142s-.024,0,.012-.1.072-.245.072-.245l.1-.064.072-.18.144-.129.132-.245a.527.527,0,0,1,.132-.116l.1-.064a.4.4,0,0,1,.144-.013,1.8,1.8,0,0,1,.215.013s-.072.052.1.052h.587a.411.411,0,0,0,.168-.013.953.953,0,0,0,.132-.1l.12-.013a.622.622,0,0,0,.108-.1c.024-.039.156-.142.18-.18s.156-.193.156-.193.12-.013.156-.013h.18s.072-.039.084-.077a.7.7,0,0,1,.156-.219,2.415,2.415,0,0,0,.227-.167l.108-.064a.452.452,0,0,1,.1-.077.728.728,0,0,0,.12-.09.875.875,0,0,0,.108-.116.735.735,0,0,1,.1-.193c.048-.052.156-.116.168-.155s.036-.167-.048-.18a.943.943,0,0,1-.156-.039l-.084-.064.012-.064v-.167l.084-.142s.012.069.012-.133v-.33s-.048-.052.036-.1a1.591,1.591,0,0,0,.2-.167l.311-.232s-.072-.039,0-.116a1.082,1.082,0,0,0,.144-.258l.012-.09.024-.18a.218.218,0,0,1,.108-.09.485.485,0,0,1,.144,0s-.024.143.084-.006.156-.226.2-.239A1.76,1.76,0,0,0,63.633,15c.1-.039.156-.193.156-.193H64.2l.12-.09s.024.077.12,0a2.4,2.4,0,0,1,.527-.18l.048-.064.132-.155.036-.064s.012.116.036,0a1.3,1.3,0,0,1,.132-.3s-.024-.039.048-.129a1.284,1.284,0,0,0,.132-.219.929.929,0,0,1,.12-.142c.048-.039.1-.064.12-.116s-.048.052.024-.052a2.444,2.444,0,0,0,.144-.245l.3-.361s-.06,0,.036-.064a.5.5,0,0,1,.239-.1c.06,0,.12-.026.168,0s.132,0,.132.09v.193a.253.253,0,0,0-.048.1c0,.039-.012.064-.012.1s.084.116.084.116l.06.052.072.077.144.193.084.064a.089.089,0,0,0,.072.039h.048l.5.026.18.155.263.039.132-.1v-.1l.024-.077c.072-.039.144.064.144.064v.064s-.024.052.012.064a.275.275,0,0,1,.12.064,2.1,2.1,0,0,0,.227.155.359.359,0,0,1,.1.013.277.277,0,0,0,.108.013.458.458,0,0,0,.12-.026h.12l.132-.142s.072-.206.132-.232l.12-.052.132-.077.12-.013.048.129a.211.211,0,0,0,.024.077c.024.052-.072-.013.024.052s.2.077.2.039.012-.206.012-.206l.06-.064s.227-.064.227-.013v.052c0,.1-.168.155,0,.1s.251-.052.251-.142a1.226,1.226,0,0,1,.012-.167l.215-.1A.306.306,0,0,0,71.2,13.1a2.593,2.593,0,0,1,.263-.1.138.138,0,0,1,.048-.064,2.457,2.457,0,0,1,.323-.09,1.2,1.2,0,0,0,.12.013c.036,0,0,.026.12.026s.251.013.287.013h.132a2.569,2.569,0,0,1,.263.052l.18.077.192-.09.108-.09.2.026c.084-.039.2-.167.251-.167a1.44,1.44,0,0,1,.347,0,2.329,2.329,0,0,0,.347.026c.048,0-.024-.077.048,0a1.5,1.5,0,0,1,.132.167l.215.18c.072.039.215.077.239.013s.024-.116.072-.129a.761.761,0,0,1,.144-.013c.12.052.144.064.2.013l.239-.206s0-.064.036-.064.132.013.144.052.06.167.06.167l.1.052.108-.026.156-.18.192.064.06.1a.1.1,0,0,0,.036.077l.036.026a1.614,1.614,0,0,0,.251.077h.108a1.1,1.1,0,0,0,.2-.09l.156-.064a.51.51,0,0,1,.132-.077,1.226,1.226,0,0,1,.215-.077l.072-.013a.359.359,0,0,1,.1.013.518.518,0,0,0,.144,0h.1a.6.6,0,0,1,.132.039.076.076,0,0,1,.06.039,1.35,1.35,0,0,1,.108.142c.024.052.06-.026.024.052s-.012-.026-.036.077-.192.155-.048.206l.144.052s.012-.013.072-.064l.06-.052.084-.1a.383.383,0,0,0,.072-.077c.024-.039-.048-.1.072-.1h.12a.449.449,0,0,0,.06.155.192.192,0,0,1,.048.129c0,.039.036.077,0,.116s-.156.142-.156.142l-.168.116a.926.926,0,0,1-.132.064.245.245,0,0,0-.048.077c-.012.039.024-.052-.012.039s-.024,0-.036.09l-.012.09.084.064s.108.09.144.116l.036.026a.58.58,0,0,1,.084.116.448.448,0,0,1,.06.155,1.154,1.154,0,0,1,.012.155v.142a.558.558,0,0,1,0,.142c-.012.052-.06.18-.06.18l-.048.064s-.12.116-.156.142-.1.064-.108.1-.072.09-.1.129a1.746,1.746,0,0,1-.1.18c-.06.09-.156.258-.156.258l-.072.1s-.072.026-.012.077-.06-.077.06.052.311.322.311.322c.084-.077.072-.1.12-.193s.1-.258.144-.283-.024-.039.048-.026.132.116.132.116l-.012.1-.072.064a.171.171,0,0,0-.024.077c0,.039-.084-.039,0,.039a1.51,1.51,0,0,0,.215.155c.012.077.132.142.168.155s.192.039.192.039l.144-.013.144.052s-.012.064.024.077a.538.538,0,0,1,.108.077,1.346,1.346,0,0,1,.18.155c.024.039-.06.039.084.039s.275-.026.323-.026h.18l.1-.232s.012-.052.06,0a.537.537,0,0,0,.12.09l.072.064.3.039.132.077.263.116s.132-.013.132.026-.072-.026,0,.039.048.142.084.142.156.026.2.026a.334.334,0,0,1,.108.026s0-.026.06.039.012,0,.06.064.2.142.215.219a.546.546,0,0,1-.036.206v.1s-.012,0,.036.064a.989.989,0,0,1,.1.206l.108.1s-.036-.026.1.09a1.369,1.369,0,0,0,.227.167h.18a3.527,3.527,0,0,0,.371-.026s.132-.052.192,0,.168.052.215.1-.024-.013.048.052.12.052.18.077a.26.26,0,0,0,.09.026s-.114-.013.114.064l.227.077s-.024.052.072.142a.387.387,0,0,0,.156.1l.215.155s.072-.039.168.064a.968.968,0,0,0,.18.155Z" transform="translate(-52.5 -12.514)"/>
      <path id="Pfad_50" data-name="Pfad 50" d="M630.919,502.877v-.21h-.158l-.14.105v.105a.136.136,0,0,0-.123,0c-.052.035-.052-.14-.123,0l-.07.14s.035.105,0,.158,0,.158,0,.158h.07a.276.276,0,0,0,.018.158.22.22,0,0,1,.017.14l-.121.07-.072.21v.07a.126.126,0,0,0-.123,0l-.07.035a.936.936,0,0,1,0,.228c-.018.07.088-.035-.018.07s-.035.193-.105.105a.615.615,0,0,1-.088-.263l-.07-.035-.158-.018v.385s.123.14.123.21.193.053,0,.07a1.723,1.723,0,0,1-.333,0,.163.163,0,0,1,0,.105,1.1,1.1,0,0,0,0,.245s-.086.017-.008.088.183.14.078.175l-.105.035-.175-.105v-.088l-.105.018s-.123,0-.123.053v.3s-.018.018,0,.105l.018.088a.721.721,0,0,1-.025.105c-.01.018-.08,0-.08,0V505.7a.26.26,0,0,1-.123,0l-.038-.013-.015-.005s-.3.191-.315.218-.105,0-.105,0l-.088.115v.088s.105-.105.105,0a.156.156,0,0,0,.105.14s.158.105-.018.105h-.333v-.228l-.158-.035a1.886,1.886,0,0,1-.21.105v.053l-.07.035-.088.07s.105-.07,0-.07h-.193l-.088.07a.175.175,0,0,1-.088.105c-.07.035-.158.088-.158.088h-.385l-.07.07a.209.209,0,0,0,0,.123c.018.088-.016.088-.008.158a1.7,1.7,0,0,1,0,.21v.1l-.052.059v.033l-.066.053-.033.039c-.026.046-.059.066-.072.092a.176.176,0,0,0,0,.085l-.006.066v.033l-.066.046s-.026-.046-.053,0a.29.29,0,0,0-.033.092v.243s.053.039.053.059v.02l.007.079v.033l.007.145.007.046s-.013.053.013.079l.059.059a.074.074,0,0,1,.026.033.578.578,0,0,0,.033.066v.059l-.006.046a.274.274,0,0,0,.006.1c.013.02.039.053.039.053l.066.039.007.039a.517.517,0,0,1,.006.059v.066a.217.217,0,0,0,.007.085.67.67,0,0,0,.053.151l.02.02a.116.116,0,0,0,.059.059.565.565,0,0,1,.085.039l.059.085.052.033.013.039a.151.151,0,0,0-.079,0l-.026.013s-.033.013-.033.033a.379.379,0,0,1-.007.079c-.006.033,0,.059-.006.079l-.007.02s-.02.053,0,.059l.1.033c.02.007.059-.053.072,0a.35.35,0,0,0,.033.085.181.181,0,0,1-.079.046l-.039.007h-.059s-.007.007-.026,0l-.02-.007-.013.059s-.039-.053-.039,0a.25.25,0,0,1-.013.085l-.013.033a.27.27,0,0,0-.033.1l-.013.072-.046.092s-.046.026-.046.066a.552.552,0,0,1-.007.079,1.081,1.081,0,0,1-.131.046l-.02.039-.02.072-.026.151a.125.125,0,0,1-.02.085c-.026.026.033,0-.026.026a.106.106,0,0,1-.1,0l-.072.046-.039.033s.039.007,0,.026-.046.026-.046.053-.026.033-.039.085.026.072,0,.105-.006.066,0,.085,0-.039,0,.02a.479.479,0,0,1-.013.138h-.033l-.046.072v.046a.314.314,0,0,1-.033.079v.171s.013,0,0,.026a.432.432,0,0,0,0,.131s-.031.006-.006.033.026-.039.026.026a1.365,1.365,0,0,0,.046.23s-.013.006.02.046.138.138.138.138a.209.209,0,0,1,.039.052c.007.02,0-.026.007.02a.418.418,0,0,0,.085.158c.039.053.105.125.105.125v.092c0,.02-.007.085-.007.085s.053.112.02.138-.007-.02-.033.026a.392.392,0,0,0-.046.092c-.007.026-.02.02-.026.079a.7.7,0,0,0,0,.125.164.164,0,0,1,.026.039.421.421,0,0,0,.04.059.069.069,0,0,1,.02.039.388.388,0,0,0,.033.085v.039c0,.033.007-.02,0,.033s.007.131.046.151l.039.02a.374.374,0,0,1,.079.112c.013.046-.02-.013.013.046s.039.085.052.105.046.02.066.046-.007-.02.02.026a.39.39,0,0,0,.059.085.632.632,0,0,0,.1.092c.033.026.072.053.072.053l.079.053a.427.427,0,0,1,.072.033.587.587,0,0,1,.105.059.593.593,0,0,0,.118.066h.112l.085.066s.072.026.079.053.039.033.066.053a.238.238,0,0,0,.112.046h.2a1.022,1.022,0,0,0,.145-.039c.046-.02-.007.013.046-.02s.3-.145.3-.145l.027-.079s-.019-.053,0-.059.085-.085.117-.092l.033-.007h.322l.236-.046.033-.059.039-.1s.026-.066.033-.085.046-.164.059-.184a.8.8,0,0,0,.039-.085.185.185,0,0,1,.013-.072c.013-.02.013-.131.066-.184a.234.234,0,0,0,.059-.131.552.552,0,0,0,.046-.118c0-.026.092-.125.1-.158s.059-.191.059-.191l.039-.085.007-.19.033-.066.072-.164c0-.046.013-.23.013-.23a.113.113,0,0,1,.013-.046,1.091,1.091,0,0,0,.053-.131.483.483,0,0,0,0-.158.779.779,0,0,1,.013-.145l.053-.079a.277.277,0,0,0,.079-.125c.013-.066.046-.23.046-.25a.15.15,0,0,1,.046-.105c.033-.02.059-.092.092-.118a.612.612,0,0,0,.072-.184.16.16,0,0,1,0-.059c.006-.026.033-.2.033-.2l.026-.158s.02-.105.026-.131a1.473,1.473,0,0,1,.092-.236.749.749,0,0,0,.059-.145l.02-.158a1.981,1.981,0,0,1,.079-.2s.007-.072.007-.092.039-.072.039-.092.02-.164.02-.164l.085-.151s.039-.046.039-.066a1.131,1.131,0,0,1,.026-.118s.013-.1.02-.131a.889.889,0,0,1,.059-.138c.013-.026.1-.079.083-.105a1.217,1.217,0,0,1-.057-.158s.007-.066.059-.079a.411.411,0,0,0,.131-.1l.052-.079v-.158l.053-.085v-.131s-.033-.046,0-.066.033-.033.066-.066a.148.148,0,0,0,.039-.072s-.033-.039-.053-.039-.039-.007-.072-.007-.059-.059-.059-.059l-.046-.171-.046-.046.066-.164h.177l.033-.105a.544.544,0,0,0,.079-.145.361.361,0,0,0,.053-.066c.013-.026.033-.072.033-.072v-.053l-.059-.177.007-.039.013-.105s-.02-.033-.033-.059a.3.3,0,0,1-.019-.072l-.059-.079-.02-.059V506.2a.422.422,0,0,0,0-.092c-.007-.02-.046-.092-.046-.092s-.007-.007-.007-.039a1.1,1.1,0,0,1,.059-.177l.072.053a.05.05,0,0,1,.013.033v.072l.007.046.026.066s.053-.013.046.026.053.085.053.085l.033.039.039.092v.026l.033.033.039.026s.013-.013.033.007-.085.066.02.02a.25.25,0,0,0,.145-.118.311.311,0,0,0,.039-.1v-.158l.046-.053v-.289a.211.211,0,0,0,0-.066c-.006-.02-.059-.118-.059-.118l-.007-.053-.02-.053-.066-.105s.007-.007-.013-.059-.046-.118-.046-.118a.115.115,0,0,1-.007-.072,1.788,1.788,0,0,1,.046-.184v-.131a.466.466,0,0,0,.013-.079.511.511,0,0,1,.02-.092l.013-.131a.062.062,0,0,0-.026-.046c-.026-.02-.02-.039-.046-.072s0,.007-.026-.033-.059-.085-.072-.105a.331.331,0,0,1-.026-.072v-.105l-.02-.053a.132.132,0,0,1-.033-.066.677.677,0,0,0-.033-.105v-.046l-.026-.092-.033-.033-.066-.138-.079-.145-.1-.092a.531.531,0,0,0-.085-.125.358.358,0,0,1-.072-.092L631,503l-.072-.066Z" transform="translate(-569.17 -453.021)"/>
    </g>
  </g>
</svg>

