<svg xmlns="http://www.w3.org/2000/svg" width="143.255" height="114.964" viewBox="0 0 143.255 114.964">
  <g id="noun_asia_740457" transform="translate(-12.997 -16.8) rotate(-1)">
    <g id="Komponente_1_1" data-name="Komponente 1 – 1" transform="translate(12.659 19.49)">
      <path id="Pfad_1" data-name="Pfad 1" d="M42.506,73.045a1.369,1.369,0,0,1-.688.047c-.134-.039-.141-.327-.357-.223-.1.048-.109.31-.1.4.036.4.817,1.037,1.158,1.273a2.5,2.5,0,0,1,.31.187c.1.09.124.207.215.3.12.119.3.121.372.308s-.158.257-.1.424.282.165.383.3a2.727,2.727,0,0,1,.18.46c.089.174.335.689.5.75-.016.363.572.933.878,1.188.474.395.9.768,1.325,1.189a1.249,1.249,0,0,1,.053-.267.657.657,0,0,1,.38.209,3.35,3.35,0,0,0,.053-1.328c.3-.244.036-.524-.25-.578-.065.1-.192.136-.262.216-.342-.238-.062-.311-.147-.533-.072-.189-.338-.189-.189-.469-.21-.135-.439-.289-.449-.541.091-.016.164-.1.263-.109.116-.538-.66-.142-.9-.147a.613.613,0,0,1,0-.205c.113,0,.209-.062.309-.063-.038-.028-.3-.131-.316-.159-.054-.108-.036-.324-.1-.428-.181-.294-.519-.27-.717-.489.028.055.05.195.078.252-.363.048-.235-.24-.37-.453a3.11,3.11,0,0,0-.53-.514c-.347-.32-.519-.793-.969-.867-.041-.088.023-.09.039-.131" transform="translate(14.816 30.842)"/>
      <path id="Pfad_2" data-name="Pfad 2" d="M49.71,77.909a1.85,1.85,0,0,1-.316-.727c.55-.18-.4-.571-.458-.8-.027-.106.08-.341.075-.359.018.067-.111-.343-.118-.24.011-.161.074-.376.089-.578.268-.121.537.059.716-.094a.853.853,0,0,0,.335.256c.16-.27-.1-.489.147-.766.151-.167.34-.105.585-.184.567-.184.705-.76.96-1.234.128,0,.245,0,.372,0,.235.54.592-.8.732-.973.241.1.89-.123.649.457a4.419,4.419,0,0,1,1.138.335.868.868,0,0,1-.771.275c.3.331.259.5-.32.459,0,.2.173.358.222.589a4.144,4.144,0,0,1,.039.728c-.043.014-.081,0-.125.015.1.2.6.455.781.632-.195.34-.615-.117-.879.275-.185.274.054.693-.264.869a.9.9,0,0,0-.089-.127,2.111,2.111,0,0,0-.2.409c-.015.029-.178.349-.172.317-.051.272.1.487-.067.783-.091.157-.439.5-.634.453-.04-.008-.08-.264-.181-.325a.368.368,0,0,0-.4,0c-.018-.115-.1-.18-.106-.308a3.353,3.353,0,0,0-.491,0c.006.042.014.1.022.134a1.449,1.449,0,0,0-.527.082.735.735,0,0,1-.013-.447c-.238.036-.382.234-.636.132" transform="translate(20.218 30.842)"/>
      <path id="Pfad_3" data-name="Pfad 3" d="M47.829,79.882c-.158.1-.689-.079-.636.313a.364.364,0,0,1,.273.6,2.264,2.264,0,0,1,1.189-.084,1.755,1.755,0,0,1,1.125.417c.438.3.749.173,1.213.133.264-.022,1.126.225.79-.276-.129-.192-.781-.278-1.02-.4a1.453,1.453,0,0,0-1.046-.275,1.175,1.175,0,0,1-.937-.048c-.148-.077-.242-.228-.391-.3s-.458-.033-.425-.081" transform="translate(18.597 30.842)"/>
      <path id="Pfad_4" data-name="Pfad 4" d="M57.189,71.99a.516.516,0,0,0,.77.648c.032.052.077.093.1.129.08-.193-.076-1.221.358-.827a2.052,2.052,0,0,0-.319-1c.284-.13.2-.475-.1-.583a.336.336,0,0,0-.052.482c-.224.078-.542-.017-.542.321a.509.509,0,0,1-.54.23c.061-.088.044-.23.081-.307a.4.4,0,0,0-.505.309c-.518-.083-.452.514-.454.84.266-.223.157-.553.508-.687.285-.108.494.083.681.227a1.336,1.336,0,0,1,.005.35.251.251,0,0,1-.136.01" transform="translate(23.912 30.842)"/>
      <path id="Pfad_5" data-name="Pfad 5" d="M49.48,64.97c-.061-.064-1.067.152-.7-.507.176-.317.851-.278,1.156-.395-.173.3-.476.623-.4,1a.115.115,0,0,0,.035-.141" transform="translate(18.421 17.181)"/>
      <path id="Pfad_6" data-name="Pfad 6" d="M55.4,62.63c.015-.082.818-1.872.184-1.609-.512.212-.635,1.7-.092,1.655" transform="translate(22.616 15.039)"/>
      <path id="Pfad_7" data-name="Pfad 7" d="M55.767,66.943c-.011.006.071.076-.037.041-.1-.34.353-.6.46-.856.146-.347-.15-.625-.006-.882-1.091-1.115-.792,1.094-1.107,1.382-.044-.071-.15-.135-.2-.221-.392.588.816.9.327,1.271.173.09.415.138.6.224a4.246,4.246,0,0,1,.053-.912" transform="translate(22.681 19.138)"/>
      <path id="Pfad_8" data-name="Pfad 8" d="M66.412,77.909c-.372-.021-.658-.427-1.008-.644-.235-.146-1.308-.158-.98.277-.581.2-.991.974-1.532.275-.22-.283.13-1.707-.792-1.235-.352-.332-.851.1-1.122.318a.747.747,0,0,0,.518.1.787.787,0,0,1,.013.547c.343.162.7-.151,1.089-.088a2.844,2.844,0,0,1,.045.445,5.657,5.657,0,0,1-1.086.014c.029.311.8.1.364.638.272.152.435-.117.509-.366.15.279.458.2.67.37.144.118.081.257.239.36a1.429,1.429,0,0,0,.412.094,1.133,1.133,0,0,1,.818.365c.212.187.331.4.644.375a3.682,3.682,0,0,1,.153.489.281.281,0,0,1,.121.47c-.13.118-.335-.107-.554.03-.625.392.166,1.044.387.247.21.168,1.187.481,1.14.684Z" transform="translate(28.826 30.842)"/>
      <path id="Pfad_9" data-name="Pfad 9" d="M60.4,55.61c.813-.025-.264,1.238.5,1.14.015-.043,0-.081.013-.125.05.032.223.049.272.08a7,7,0,0,0,.217-.993c-.019-.472-.432-.316-.549-.6-.167.163-.577.388-.5.626a.5.5,0,0,0,.144-.078" transform="translate(26.324 10.125)"/>
      <path id="Pfad_10" data-name="Pfad 10" d="M61.043,54.784c0,.029-.06.1,0,.061.216-.035.267-.162.416-.283.116-.1.128-.193.278-.283a2.4,2.4,0,0,1,.31-.057c.312-.056.958-.011,1.028-.443.272.221.557.351.783.055.1-.127.107-.449.181-.613.083-.185.314-.1.227-.45.229,0,.25.209.184.4a2.5,2.5,0,0,0,.763-.451c.137-.12.209-.274.331-.378.154-.131.322-.176.447-.357a1.473,1.473,0,0,0,.192-1.009c-.032-.286-.245-.81.316-.636.068.344.311.079.458.269.119.153.031.384.007.55-.043.3-.221.675-.281,1-.492-.03-.153.63-.276.871-.4.067-.117.476-.139.659a1.047,1.047,0,0,1-.359.6c.035-.066.043-.208.074-.287-.321-.157-.35.31-.662.286-.006.077-.05.135-.061.216-.231-.094-.375.089-.592.054s-.25-.3-.541-.225c-.128.269.195.417.053.639-.01.016-.485.164-.52.178-.1.042-.276.454-.312-.043-.017-.229.341-.351.084-.554-.483-.382-1.791.453-2.333.409-.021-.1.041-.133.039-.131" transform="translate(29.108 7.655)"/>
      <path id="Pfad_11" data-name="Pfad 11" d="M66.044,49.737c-.136.025-.48-.138-.334-.381.107-.178.692.014.489-.449.16.007.324.006.481,0,.077-.466.523-1.118.139-1.508.306-.34.435.246.6.4a1.6,1.6,0,0,0,.732.273c.264.065.776.045.828.333.086.492-.491.279-.738.367-.331.117-.217.4-.468.585-.414.3-.386-.141-.629-.267-.644-.331-.736.454-1.057.736" transform="translate(31.084 3.97)"/>
      <path id="Pfad_12" data-name="Pfad 12" d="M42.692,36.855a.907.907,0,0,1-.687.659c-1.315-1.653-2.785-.525-4.168.5-.637.471-.909.947-1.444,1.291-.654.418-1.566.54-2.176,1.133a18.355,18.355,0,0,0-1.236,1.572c-.671.846-1.1.7-1.862,1.2-1.965,1.3-2.015,4.173-1.368,6.424.346,1.208,1.18,2.312,1.374,3.486.2,1.193-.569,1.779-.687,2.839-.185,1.655.531,3.518.687,5.04a11.094,11.094,0,0,1-.481,2.957l.08-.053c-.316-.013-.606-.246-.917-.019-.16.116-.11.36-.243.493-.11.113-.216.081-.343.186a1.682,1.682,0,0,1-1.005.373,7.084,7.084,0,0,0-1.092.323,4.571,4.571,0,0,1-2.369.133c-.459-.088-1.04-.443-1.368.124-.311.535.06,1.9.063,2.52l-.057.081c.361.244.5,1.053.739,1.405-.136.039-.306.22-.444.255a1.453,1.453,0,0,1,.083.244c1.047-.036,2.127-1.882,2.909-.338.456-.441.977-.649,1.2.18a5.475,5.475,0,0,1-.093,1.972c-.514-.773-1.085-.259-1.662.18a1.662,1.662,0,0,1,.293,1.024.583.583,0,0,1-.454-.584,6.485,6.485,0,0,0-.905.18c.581.527.907,1.405,1.446,1.9.281.257.9.366,1,.664.115.334-.646.672,0,.94.1-.674.649-.544,1.05-.321a1.708,1.708,0,0,0,.393.929c.2.33.641.144.388.781-.378.942-1.371,0-1.9.272.04.782.822.8.819,1.435-.148-.045-.371,0-.516-.064.2.477.639.681.835,1.109a4.171,4.171,0,0,1,.146,1.463c0,.863.01.668-.614.876-.381.126-.942.527-1.374.42-.21-.053-.3-.347-.474-.413a5.188,5.188,0,0,1-.607-.1c-.334-.28-.381-.722-.762-1.1l.11.043c-.251-.174-.754-.143-.962-.336-.175-.163-.195-.947-.173-1.2.526-.227.228-.826.491-1.3.233-.415.807-.154.6-.735-.015-.041-.3-.133-.373-.225-.1-.128-.093-.334-.17-.452-.26-.4-.343-.439-.79-.338l-.073.111c-1.063.242-2.983-1.27-3.321-2.413a4.179,4.179,0,0,1-1.98-.5,3.79,3.79,0,0,0-1.993-.662c-.025.9.822.788,1.043,1.5a8.837,8.837,0,0,1-.394,2.079c-.381.253-6.085,3.838-4.155,8.82.216.9-.5.908-.812,1.465-.361.642-.053,1.435-.088,2.133a11.8,11.8,0,0,0-.235,1.826,4.917,4.917,0,0,1,.075,1.685,1.66,1.66,0,0,0,.231,1.655c.364.67.854,1.351,1.238,2.064a10.314,10.314,0,0,0,2.266,2.946c-.389,1.257-.6,1.488-.208,2.726.92.165,1.424.918,1.8,1.818a14.708,14.708,0,0,1,1.3,2.775c.078.54-.018.8.077,1.351s.225,1.036.338,1.557c.166.769.15,1.31.958,1.281a9.165,9.165,0,0,0,1.849-.334,12.648,12.648,0,0,0,1.752-1.036,3.48,3.48,0,0,1,1.07-.413c.158-.038.333.047.537-.015.1-.032.248-.223.364-.278a9.093,9.093,0,0,1,1.533-.6c-.013-.068.055-.176.078-.221-.05-.068-.1-.131-.15-.2a4.468,4.468,0,0,1,3.127-1.734,1.94,1.94,0,0,1,.448-1.045c.221-.144.516.124.789-.079.181-.135.165-.617.4-.827.151-.137.531-.051.735-.2l.093-1.126.163-.66c.473,1.1,1.439-.306,1.579-.953-.037.174-.09-.644-.088-.627-.007-.109.211-.313.18-.5-.065-.385-.624-.593-.849-.8-.288-.261-.524-.657-.835-.9-.366-.291-.855-.1-1.166-.514A2.616,2.616,0,0,1,31.009,97a6.908,6.908,0,0,1-.323-1.366,4.6,4.6,0,0,0-.433.332,7.182,7.182,0,0,0-.1.745c-.188.017-.324.186-.513.2.092,2.163-1.943,1.047-3.053,1.439a8.873,8.873,0,0,0-.235-2.4c-.709-1.334-.463,1.272-.522,1.445-.007-.471-.606-1.1-.844-1.372.095-.612.165-.645-.165-1.128-.136-.2-.438-.053-.557-.206s-.067-.508-.15-.719c-.391-.976-.4-1.644-1.348-2a1.18,1.18,0,0,1,.208-.165,1.415,1.415,0,0,1,.085-.749c.138.088.459.079.6.154.013-.141.1-.293.106-.413.273.235.531.114.839.25.486.214.384.094.727.608a2.116,2.116,0,0,1,.26,1.963,9,9,0,0,1,1.745.189,2.193,2.193,0,0,1,1.1.687c.361.338.8.7,1.22.589.5-.137.774-.846,1.344-.917,1.5-.188.409,1.569,1.048,2.246.456.482,1.469.118,2.013.173.82.083,1.577.846,2.436.642.421-.1.6-.325,1-.388.3-.047.734.084,1.067.062.8-.054,1.554-.585,2.063.084.559.737.424,1.221,1.361,1.653-.914,1.33,1.331.7,1.677.685.11,1.026-.829.719-1.28,1.084.31.516.541,1.463,1.143,1.7.476.188.684-.537,1.2-.229a.962.962,0,0,1,.775-.349,3.254,3.254,0,0,1-.072-.972.67.67,0,0,0,.681.574.977.977,0,0,1-.208.171,4.431,4.431,0,0,1-.068,1.041c-.078.236-.461.25-.488.58-.032.385.484.664.6.966a3,3,0,0,1,.113.842c.073.722,0,1.486.06,2.225a4.17,4.17,0,0,0,.915,2.143,8.589,8.589,0,0,1,.612,2c.241.72.749,1.225.975,1.963a13.065,13.065,0,0,0,1.042,3.267c.834,1.253,1.281-.773,1.875-1.443.439-.492.762-.51.7-1.362.586-.218.519-3.257.522-3.893a3.055,3.055,0,0,1,.632-1.784c.309-.34,1.29-.445,1.03-1.051.667-.625,1.31-1.338,1.985-1.981a13.917,13.917,0,0,0,1.24-1.734c.654,1.148,1.012-.78,1.085-1.039.181-.63.253-.306.6-.779a3.263,3.263,0,0,0,.318-.831,6.871,6.871,0,0,0,.439.608c.037-.109.243-.289.286-.409.438.375.905.281.933-.435a2.071,2.071,0,0,0,.927.283c-.093-.343-.669-2.126.111-1.672a3.964,3.964,0,0,0-.111.839c.1-.054.341-.026.441-.069.063.531.536,1.092.692,1.715.241.957.366.859.993,1.394,1.241,1.054,1.408,2.9,1.6,4.492.5.139.767.42,1.088-.281a.5.5,0,0,0,.735.058,3.223,3.223,0,0,1,.166-1.208,6.046,6.046,0,0,0,.461,1.223,4.69,4.69,0,0,1,.359.942c.168.747.188,1.332.421,2.071a10.86,10.86,0,0,1,.536,2.064c.043.48-.268,1.574.2,1.824.013.929-1.04,1.655-.677,2.762.5-.381.794.3,1.013.752.138.281.211.713.363.955.095.15.319.122.379.248.176.373.173,1,.384,1.467.223.492.561.863.782,1.372.394.906.967,2.625,1.968,2.919,1.053.311.85-1.328.01-1.465-.195-1.283.263-2.67-.624-3.632-.714-.775-1.737-1.09-2.451-1.865.2-.214.178-.4.225-.674-.594-.131-.3-1.047-.97-.976a12.069,12.069,0,0,1,.295-2.482,20.772,20.772,0,0,1,.4-2.828c.785-.287.416.544.689.923.213.3.662.321.978.595.456.394.907,2,1.586,1.4.208.745.651.5.912.942.211.358.14,1.026.27,1.452a2.125,2.125,0,0,0,1.191-.662c-.023-.026-.125-.073-.153-.1a3.242,3.242,0,0,1,.218-.632c.31-.28.353.077.709.023a2.205,2.205,0,0,0,1.318-.69,4.647,4.647,0,0,0,.587-2.518c.08-.839.276-2.143-.223-2.824-.186-.255-.542-.3-.784-.677-.23-.36-.411-.705-.637-1.036a15.99,15.99,0,0,1-1.328-1.809,2.987,2.987,0,0,1,.241-2.238c.436-1.086,1.945-2.188,2.794-1.3,0-.1.03-.225.03-.326.037.006.151.154.156.152.9-.251.176.7.374,1.028a3.785,3.785,0,0,0,.293.338,1.478,1.478,0,0,0,.24-1.083,4.817,4.817,0,0,0,2.577-.961,1.137,1.137,0,0,1,.451-1.2c.113,1.291,1.17.5,1.77.25.646-.268,1.228-.405,1.471-1.278.015,0,.171.054.195.06.258-.418.864-.221.714-1.008.532-.111.065-.747.369-1.145.14.2.373.242.524.345-.02-.146.042-.345.025-.493.5-.039.607-.655.611-1.118.812.2.363-.662.877-.782.007-.321.038-.24.153-.518a2.746,2.746,0,0,1,.178-1.358c.027.1.073.193.093.3.341-.445.136-.841.2-1.343a1.978,1.978,0,0,1-.97.146c.018-.572,1.008-.983,1.433-1.188-.306-1.079-1.772-.458-2.2-1.368.632-.062,1.236.338,1.894.315-.108-.452-.557-.25-.815-.584a9.068,9.068,0,0,1-.3-1.3,9.037,9.037,0,0,0-.418-1.051c-.133-.266-.033-.355-.21-.563-.151-.178-.411-.032-.539-.261-.3-.529.82-1.336,1.228-1.721s1.547-.589,1.511-1.323c-.181.024-.627.2-.83.1-.328-.165-.075-.36-.3-.608-.316-.343-.589-.582-1.06-.413-.088.535-.409,1.265-.993,1.092-.025-.471.1-1-.223-1.334-.048.043-.027.105-.087.154-.21-.133-.97-.863-.983-1.133a.482.482,0,0,1,.8-.441,17.692,17.692,0,0,1,2.1-1.445c.366-.255.707-1.13,1.261-.587.612.6-.421,1.047-.351,1.6a.951.951,0,0,1,.195.006c-.775.73.616.191.9.006a2.116,2.116,0,0,1,1.489-.448c.476.024.769-.083.975.448a7.25,7.25,0,0,1-.226,1.368c-.306-.1-.4-.032-.512.343a.975.975,0,0,1,1.077.512c.429.045.6.435,1.047.377-.121.135-.18.424-.295.567.1.021.2.09.3.114a.745.745,0,0,1-.133.486c-.107-.394-.195-.233-.384-.4-.015.36-.017.734,0,1.094,1-.034-.912,1.944.434,1.807.033-.555.935-.563,1.315-.675.754-.223.832-.09.832-.857a6.87,6.87,0,0,0-.21-1.659,3.4,3.4,0,0,0-.762-1.362,4.277,4.277,0,0,1-.631-1.39c-.028-.73.762-1.032,1.226-1.422.79-.664.654-1.835,1.567-2.28-.584-1.068.488-1.013.639-1.792,0-.021.007-.041.01-.062l.97.189c.17.218.627.993.857.735,2.062-1.034,3.206-3.1,4.81-5.165a7.73,7.73,0,0,0,1.834-5.424c0-.516.458-1.032.637-1.533.4-.867.181-1.223-.391-1.893.775.48-.26-1.246-.421-1.433-.439-.507-.993-.865-1.493-.268-.349.422-.391,1.019-1.017,1.051a.985.985,0,0,0,0-.612,5.587,5.587,0,0,0-.581.356,10.31,10.31,0,0,0,.062-1.349c-.23-.516-1.145-.259-.917-.516a15.4,15.4,0,0,1,5.955-5.94c1.6-1.032,3.664-.259,5.5-.516.23,0,.458-.516.687-.775.689-.259.689.259.744.428.188-.251.13-.242,0,0,.7-.156,1.3.591,2.005.347a1.108,1.108,0,0,1-.8.5c.05-.021.141-.026.2-.045a.876.876,0,0,0-.2.045c1.028.788,1.943-.5,3.088-.246a1.4,1.4,0,0,0-.458-1.032c1.483-1.441,3.454-4.9,5.654-2.844a1.667,1.667,0,0,0,.133-.366,5.357,5.357,0,0,1-.4,1.283.409.409,0,0,1,.394.422c.4-1.077,1.777-.82,2.007-1.595.458-1.032.687-1.291,1.145-1.55s1.145,0,1.145.516c0,.259-.915.259-.915.775,0,1.034-.687,2.325-1.835,2.265a.729.729,0,0,0-.048.332c.108-.156.08-.146.048-.332-1.371,1.353-2.518,3.676-4.35,3.934-2.519,2.582-1.6,6.715-.687,9.813,1.145-.259,1.6-1.291,1.832-2.582,0-.259.915-.259.915-.516.23-1.55.917-1.807,2.062-2.066.23-.775,0-2.066.744-2.591a2.329,2.329,0,0,1,.11.713c.839-.039-.04-1.182-.05-1.559-.008-.268,1.1-1.524.241-1.522-.308,0-.859,1.21-.967.126-.082-.807.716-1.854,1.117-2.4-.692-.4.817-.55,1.022-.548.792.008.927-.8,1.726-.925-.017.253-.057.507-.1.756.664-.238,1.2-.912,1.938-.895q-.1.073-.21.152c.413.056.9-.332,1.285-.09.308.193.3.672.532.944.151-.94,1.132-1.295,1.809-1.617,1.092-.52,2.118-1.191,3.19-1.764a7.259,7.259,0,0,1,1.74-.8c.591-.129.882.413,1.379.4.957-.03.353-1.752-.461-1.649.812-.878-.967-.833-.859-1.608a2.385,2.385,0,0,1-1.486-.595,5.551,5.551,0,0,1,2.015-.069c.331.032,2.158,0,1.631-.713a.508.508,0,0,0,.687-.188,4.157,4.157,0,0,0-.6-.413c.276-.1.308-.413.211-.692a3.112,3.112,0,0,0,.5-.116c-.073-.12-.06-.278-.13-.4.361-.064,1.053-.06,1.143.471.085.508-.552.625-.439,1.137a2.611,2.611,0,0,1,2.236-.109c.609.27.594.891,1.05,1.327a1.646,1.646,0,0,0,2.649-.5.53.53,0,0,1-.6-.255c.527.158.183-.373,0-.55s-.742-.415-.171-.569c.662-.176,1.5,1.379,1.691-.094a1.063,1.063,0,0,1-.023.308c-.087-.553.378-.2.634-.144.241-1.989-1.924-1.6-3.015-1.991a.533.533,0,0,0,.376.3,1.369,1.369,0,0,0-.376-.3c.484.43.547,1.525-.22,1.411-.815-.12-1-1.4-1.318-2.06-.815-1.681-2.724-1.675-4.177-2.19-.85-.3-1.538-.908-2.363-1.257a9.322,9.322,0,0,0-2.559-.58,16.323,16.323,0,0,1-2.551-.4c-.388-.109-.506-.214-.827.039-.185.146-.193.362-.381.567,1.2.889-.183,2.509-1.145,1.55-.2-.2-.333-.561-.552-.786-.107-.111-.276-.171-.364-.274-.06-.069.02-.328-.088-.39-.549-.31-.258.634,0,0-.552.364-.258.634,0,0-.6.418-1.286.159-1.973.418-1.834.259-3.666-.259-5.5-.259a.527.527,0,0,1-.458-.516,2.563,2.563,0,0,0-2.29-2.325c-1.6,0-3.206.775-4.8.587a.931.931,0,0,1,.742-.041,2.132,2.132,0,0,1-.742.041.492.492,0,0,0-.208-.837c-.3-.077-.363.268-.606.308-.421.068-.321-.289-.611-.567a1.414,1.414,0,0,0-1.176-.193,1.05,1.05,0,0,1,.524-.5,2.2,2.2,0,0,0-2.243-.7c-.73.229-1.191,1.126-2.028.94a4.668,4.668,0,0,0,.689-.664c-.509-.038-1.013.1-1.524.058.562-.948,1.877-.328,2.438-1.276-1.617-.651-3.31.37-4.949-.073.226.788-1.329.463-1.684.584.03.079.058.156.083.235.344-.251,1.008-.5,1.195.1a5.212,5.212,0,0,1-.968.46c.17.388.483.679.111,1-.356.311-1.107-.068-1.488-.143a2.7,2.7,0,0,1-.1,1.013c-.291-.595-.749-1.111-1.206-1.111a10.293,10.293,0,0,1-3.867-.5c-.311.128-.27.66-.634.779.634,1.236-.962.792-1.433.548-.541-.278-1.822-1.084-1.917-1.85.276.079,1.032.272,1.11-.225.078-.482-.456-.246-.694-.39-.652-.4.06-.2.14-.405.108-.27-.346-.666.19-.647-.687-.869-1.774-.381-2.621-.794-.431-.21-.7-.728-1.206-.69-.449.032-.75.52-1.2.572.461.861-.837,1.212-1.306.762l.3-.024a2.165,2.165,0,0,1,.329.186,2.946,2.946,0,0,1-.384-.028c.128.015.256.019.384.028-1.333-.385-2.739-.174-4.067-.593.07.056.14.111.211.163a1.262,1.262,0,0,1,.4-1.023c-1.6-.259-2.978.516-4.694.822-.211-.111-.574-.709-.441-.917-.729.76-1.384-.465-2.13-.313-.669.137-.1.567.313.578a16.3,16.3,0,0,0-3.047.976c-.715.353-1.567,1.169-2.386.724,1.088-1.525,2.965-1.527,4.28-2.67a2.587,2.587,0,0,0-.371-.317c1.015-.5,2.1-.8,3.085-1.385.253-.148.727-.34.739-.724.015-.5-.689-.717-1-.827a4.97,4.97,0,0,0,1.293.233,6.231,6.231,0,0,0-6.558-1.377h.3c-.411-.253.3-.991-.344-1.158-.493-.128-.809.79-1.338.73a6.455,6.455,0,0,0,.378-.6c-.351-.019-1.168.079-1.339-.385-.275-.739.812-.792,1.188-.749-.466-1.223-3.183-.225-3.661.644-.421.767.544.67.516,1.263-.038.852-1.932.345-2.325.353.755-.291-.072.653-.339.782-.914.441-2.083.128-3.035.064a.906.906,0,0,1,.732-.595,10.257,10.257,0,0,0-2.448.272.488.488,0,0,1,.725.165c-1.454,1.313-3.057.8-4.433,1.054-1.832.259-2.29,2.325-3.434,3.358-.917,1.291-2.521,0-3.894.259a1.743,1.743,0,0,0-.988,2.274,3.5,3.5,0,0,0-.349-1.021c.1.349.221.687.349,1.021a2.618,2.618,0,0,0,.073-.467c-.145.8,1.087.593,1.468.689.323.081.7.3.331.486-.1.051-.243-.371.01-.349.191.019.27.131.223.358-.123.606-1.419.4-1.787.325-.952-.18-1.92-1.083-2.905-.574.115.176.248.189.381.032-.245-.073-.4.071-.243.323a1.066,1.066,0,0,1-.265-.041,1.259,1.259,0,0,1,.265.041c-.493,0-2.333-.129-1.6.777.607.752,2.088.321,2.29,1.55-.867-.105-.125-.5,0,0-1.145-.516-2.749-.259-3.664-1.55,0-.259.686-1.034.456-1.55l-.456-.259c-1.834,1.291-1.145,4.132-.689,5.94,1.145,0,2.749-.516,3.436,1.032a2.8,2.8,0,0,0,.042.649c.11.947.532,1.066,1.331.9-.874,1.023-1.86.079-2.345-.846-.527-1-1.082-1.385-2.085-.8.431,1.066.589,0,0,0,.308.61.537.867.308,1.385-.917,1.809-2.978,4.132-5.038,2.582,0-.259-.23-.259-.23-.516a.942.942,0,0,1,.23-.516,3.6,3.6,0,0,0,4.122-2.841.937.937,0,0,0-.228-.516,3.02,3.02,0,0,1-1.24-.191,1.109,1.109,0,0,0,.193.084,6.085,6.085,0,0,0-.557-4.285c-.228-.516.23-1.034.23-1.55s-.458-.775-.687-1.034c-2.062-.775-2.749,2.068-4.313,3.178-.017.278.251.293.418.178a3.558,3.558,0,0,0,.258,2.321c.339.49.94.749.735,1.5a1.351,1.351,0,0,1,.9-.3,4.379,4.379,0,0,0-.065.871l-.458.257" transform="translate(-11.569 -19.49)"/>
    </g>
  </g>
</svg>
