<svg xmlns="http://www.w3.org/2000/svg" width="72.76" height="79.535" viewBox="0 0 72.76 79.535">
  <g id="Gruppe_7" data-name="Gruppe 7" transform="translate(-122.591 -436.843)">
    <g id="noun_europe_3219964" transform="matrix(0.999, -0.035, 0.035, 0.999, 132.884, 465.229)">
      <g id="Gruppe_6" data-name="Gruppe 6" transform="translate(0 0)">
        <path id="Pfad_93" data-name="Pfad 93" d="M55.932,5.348l-1.969.436-.932-.033.571-.485.031-.887-1.3.579-.02.56L51.9,5.207l-1.672.673-.861.793-.838.144-.033.95-1.1.54-.558-.283-.367-.414-.525-.592.589-.446.935-.359-.527-1.181L46.016,5l-1.109-.3.6.613-.029.834L45.119,7.3l.556.683-.286.6-.045.864-.583-.565-.972-.355-.921,1.156-1.13.407-.047,1.349-.323.269H39.491l-.582.43.388.323h.647l.582.43-.388.377h-.647L39.168,13l-.782-.57-.56-.51-.364-1.466.026-.734-.193-.6-.8-.847-1.164-.968h1.164l.259.161L39.411,9.2l2.041.071,1.8-1.105V6.926l-.517-.484L38.966,3.555l-2.1-1.08L36.348,2.1h-.841l-.582-.538H33.049v.807h-.388V1.56h-.776l-.259-.215h-.517l-.259.215h-.582l-.259-.215V1.022h.517l.388-.269L30.2.161h-.711V.646l-.129.108h-.388V.215L29.168,0h-.711V.215h.194V.968h-.323V.538h-.259v.753l-.453.377v-.7L27.875.7H27.1l.388.377-.517.43v.377l-.259.215-.517-.377-.957.024,1.087.513-1.345.024v.323l-.194.161-.065-.108h-.582v.377l-.647.538v.377l-.647.538.194.215.323-.269.129.108-.453.377h-.323L19.607,8.008h.259v.538h-.453v.323l-.453.43v.269l-.776.646h.453l-.323.269v.377l-.647.484v.323l.259.215h-.582l-.138-.146.138,1.006h-.711l-.259.215v.377l-.453.377.517.377.323-.269v-.484h.388v.43l-.841.646-.323-.323h-.453v.269h-.388v.43h-.453v.161h-.582v.161h.453v.269h-1.1l.862,1.1h-1.1l-.517.377.194.161h.776v.215h-.97v.914h.776l.259-.215.194.108-.388.269h-.906v.914l.259.215.582-.484h.453l-.582.484v.484l-.388.323h-.582v.215h.647l.194-.161.194.161-.259.269v.538h-.517v.43l.517.43h.323l.323.269h.517l.259-.215h.388l.776-.646v-.269l.194-.215h.388l.323-.269v-.43l.194-.161h.194v.484l.323.323h.259l-.129.108v.968h.453V23.09l.517.43v.269l.647.538v.484l-.388.323.259.215v.807h.776l.259-.215h.453v-.753h.453v-.269h1.164v-.753l.259-.215v-.968l-.194-.161v-1.13h.259v-.108h-.517v-.215h.388l.194-.161h.388v-.323l.129-.161.194.161h.323v-.323h-.841l-.194-.108h-.647v-.161l.259-.269h.647v-.108h.194l.323.269h.129l.453-.377v-.161l-.517-.43V19l-.259-.215h-.194l-.453-.43L22,15.216l.453-.43v-.43l.259-.215.8.773,1.1-.914v-.484l.517-.43v-.108l-.259-.215V11.471l.582-.43H25.9l.323-.269h.647l.647.538v.484l-.776.646v.646l-1.1.914v.592h-.388v.323l-.194.108v.592l.259.161v.538l.388.323V17.98l.259.215h.582l.517.43-.129.161h.129l.194-.108.388.323.453-.323h.517l.517-.43h.517V17.98h.388l.647-.484h.388l.323-.269h.453V17.6h1.423l.194.161v.269H32.111v.323l-.259.215h-.259v.484H29.782l-.323.323h-.323l-.194.108h-.194l-.582.538v.43l.129.161v.215l.582.538.194-.161h.194v1.13l.194.161v.269l-.323.269h-.388l-.97-.753-.906.753v.753l-.194.108v.7l.194.161v.484l.388.323V26.1l-.323.215h-.129l-.194-.108.194-.161v-.377h-.065v.269l-.388.323h-.323v.43l-.194.108h.129l.065-.108h.453l-1.035.861H25.32v-.161l.517-.484h-.129l-.453.43h-.388l-.259-.215v-.377l.259.215.065-.054-.388-.323h-.582l-.323.215h-.323l-.97.807h-.776l-.841.7h-.647v-.215l-.194-.215h-.323l-.323-.269h-.259V27.34h-.194l-.582.538h-.388v.215h-.323l-.259.161-.194-.161.259-.215v-.269h-.711l-.323-.269v-.269l-.323-.269v-.968l.517-.43v-.323h.453l.194-.215V24.65h-.194l-.323-.215v-.377h-.647l-.388.323-.129-.108V23.9h.323l.194-.161h.776v-.7h.323v-.108h-.517l-.97.807h-.259l-.647.538V25.78l.323.323v.861l.323.269v.161l-.259.269.194.161-.194.161.323.269h.259l-.129.161h-.647v.323l1.006.038v.269h-.259v-.43h-.841v.323l-.194.215-.323-.269h-.194l-.194.161H13.2l-.388.323v.269H13v.43l-.259.161h-.194l-.194-.161.194-.161V29.53h-.517v.484l-.323.269v.269l-.183,1.019h.388l.129.108-.129.161-.194-.161h-.906l-.259.215h-.517l-.259.215H9.519l-.129.108.417.708-.453.323H8.9l-.129.108H8.513l.644.9v.215l-.579-.634-.194.108.191.634-.194-.161H7.8l-.065-.054v-.43H7.216l-.065-.054H7.022l.065.054v.592l.129.108-.129.161v.269l.129.161v.108H6.893l-.065-.054H6.44v-.215H6.246l-.259.215H5.794v-.538H5.082l-.194.161H3.659v.215h.388v.215H3.788v.054h.194V35.6H3.594l.517.377h.453l.517.43v.215h.647l.259.161v.269l.194.161v.914l.517.43h.323v.807l-.129.108.453.377v.7l-.129-.161v-.377L6.958,39.8l-.129.108.346,1.316v.919l-3.564.075-.194.161v.377l-.517.484,3.943-1.176.128-.4-.4.659,0,.1,3.95.979L6.983,42.2,6.9,41.934l-.16.362L4.56,42.112l-1.577.008V41.8l-.194-.161H2.142l-.453.323v.161H.719l-.259.269.259.215v.43l.194.161v.377l-.259.215v1.291L.267,45.4v.861l.445.1V46.9l-.388.323v.484H.647v.215H.259v.161H.517v.807L0,49.319v1.022l.194.161h1.1l.259-.215-.169,0,.758-.367.339.56.218.379.2.258-.066,0,.384.013h.776l.259-.215h.711l.323.269.4-.745.194.161h.194l.224-.14.1-.183v-.323l.582-.484.232.055v-.7l.647-.484-.049-.384v-.43H7.616l-.259-.215.484-.666.3-.585h.453V45.9l-.129-.161.323-.323.6-.21.453-.377.01.075.517-.43v-.538H10.5l-.259-.215v-.7l.582-.484h.323l.259-.269h.388l.388.377h.906l-.008.237.23-.122-.856.344v-.269H12.9l.582-.538h.453l.776-.646L14.8,41.3,13.314,42.48l-.951.244.517.377,2.311-1.5.5.323v.161l-.3.063h.388v.215l.036,1.156-.082.019.341-.019.187.707h.259l.235.535.493.773.608.739v.269h.582v.323l.323.323h.776l.259.161v.484l.517.43v.646l-.388.269v.377l-.129.108V50.2h.453l.517-.43v-.377h.194v-.645l.323-.323h.388v-.646h-.582l-.259-.215v-.807l.582-.484.453.377h.517l.517.484h.323v-.43l-.776-.646H22.13l-.453-.377h-.388L20.9,45.36h-.453l-.259-.161h-.453v-.323l.194-.161-.259-.215-.194.161-.451-.138-.57-.779-.18-.437.015-.461-.3-.4-.714-.734.129-1,.022-.479.77-.335.155,1-.968-.774.194.161L18.1,39.8h.841l-.259.269.194.215v.323l.453.377.194-.215v-.323l.259-.161h.194l.388.269v.484l.776.646h-.388v.161h.259l-.272.367,1.048.494h.582l.194.161h.388l2.63.449h.388l-4.859-.779.642.4.517.43h.259l.517.484h.388l1.753.819.178.352.331.2.36.2.183.029.311-.991-.29.777v.215l-.124.257h.194l-.828.89.194.161.323-.269H27.31l.259.215v.161h-.906l-.194-.161h-.388l-.453.377H25.5l.764-.836-.117,1.8v.592l.323.269L26.6,48.8v-.269l.129-.161.388.323V48.8l.194.215v-.323l.194-.161.517.43.194-.215-.194-.161v-.269l-.194-.215v-.161l-.388-.323v-.108H27.7l.323.269.259-.215h.194V47.4l-.129-.108h-.388l-.129-.108v-.323l.194-.215h.323l.259.215H28.8l.129-.108v-.377l-.259-.161h-.259l-.323-.269-1.5.184-.194-.161h-.259l1.906.972.129-.108H28.3v-.592l.388.323.129-.161-.582-.484v-.161l-1.391-.693L26.4,43.956H26.6v.161h.259l.582.484.129-.108-.388-.269h.259l.194.108h.194l-.259-.215.129-.108.259.161h.323v-.215h-.323l-.323-.269.194-.161h.194l.517-.377h.194l.388-.323h.259l.259.161h.841l.194.161.337-.113.467.216-.483.24-.352.538-.007.195.813-.136-.01.285-.009.255.289.122.083.341-.28-.01-.27-.131.157.279L31.4,45.4l.871.03.08.445.414.327,0,.125.2-.118.331.012-.008.231-.331-.012-.05.185.484.017.342-.174.714.025.294.375.565-.06.529-.277.012-.349,1.128-.24.344.292.432.144.823-.1.451-.93.8-.094.778-.3.706-.785.039-1.122.294-.968-.416-.529-.969-.191L39,41.31l-1.078.27-.793.067-.6.248-.742.214-.881.055-.688-.109-.964.218.612.4-.834.407-.822-.029-.3.217.56-.86.01-.28h.582l.129-.108h.453l.259-.215v-.269h-.776l-.841-.753V40.62l-.323-.269h-.388l.453-.43.8-.132.323-.269h.194l.659-.681.692.392-.384-.013.372.356.869.03-.015.439-.89.584.86.284-.033.948.737.026.924-.639.8-.25-.427-.268-.637-.3.027-.776.672-.687,1.262-.166-.129-.054v-.215H39.1l.453-.323v-.215l-.259-.161,1.076.405-.02.567-1.111.589.25.632-1.124.912,2.594.261.706.347,1.164.331,1.2.609.958.361,1.336,1.874,1.185.472-.645-1.941L46.4,42.24l.253-.524,1.015-1.042.323-.269v-.161l1.035-.914h.582l.323-.269v-.592h-.453l-.582.484.022-.635.018-.513.162-.551.017-.482-.588-1.206-.311-1.613.427-1.7,1.626.708H51.5l.589-.142,1.229-.2,3.17-1.422.394-2.261.077-2.2-.7-4.577.959-2.917-.784-2.087L55.16,12.275l.83-2.452L57.6,8.4l1.3-.619,1.821-2.267-2.986-.993Z" transform="translate(0 0)"/>
      </g>
    </g>
    <rect id="Rechteck_59" data-name="Rechteck 59" width="0.4" height="0.3" transform="translate(149.788 436.843)"/>
    <path id="Pfad_118" data-name="Pfad 118" d="M22.544,44.7h-.328l-.131.13-.328-.259v-.583l-.656-.648v-.13h.394l.262.259v-.518l-.2-.194v-.324l-.2-.194v-.13l-.328-.259H20.9l-.262-.324V39.911l-.525-.453V39.2h-.722L19.2,39H19l-.2-.194.2-.13.131.13h.459l.2-.194-.2-.13,1.05-1.036v-.259L21.1,36.8v-.259h-.394l-.2-.194h-.722l-.066.065H19V36.09l.2-.194-.131-.13.2-.13h.2l.328-.389h.262l.328-.259-.2-.194H19.067l-.2-.194-.262.259v.13H18.28v.583h-.59V35.9l-.2.194.262.259v.324l-.459.453h-.328l.131.13v.259h.131l.2-.194h.328l.131.13-.328.324v.194l-.459.453v.518l-.262.259v.194l.394-.453v-.389l.262-.259.131.13v.194h.2v.259l-.131.194.2.194v.259l-.394.324v.259l-.394.389.2.194h.2l.2.194v-.194h.262l.131.065h.328l.066-.065h.459l.2.194h-.2l-.394.389v.583l.262.194h.131l.262.259-.328.324v.518l-.328.324-.2-.194h-.262l-.2.259h-.459l-.262.194H16.9v.194h.131l.066-.065h.328l.066.065V44.7l-.525.453h-.459l-.131.194h-.525v.194l.2.13h.262v.194h.066l.2-.194H17.1v.389l.525.518h.394l.328-.259h.394v.13l-.525.583h-.2l-.131-.13h-.525l-.066-.065H16.9v.324h-.328l-.262.259h-.328l-.459.453h-.262L15,48.137h.262v.324h.131v-.194l.2-.194.131.065.2-.259.2.194h.656l.328.324.2-.13v-.194l.2-.259h.656l.328.324H19v-.13h.59v-.13h.2l.2.194H20.9l.262.194h.459l.2-.194h.328l.328-.259v-.259h-.2l-.2-.194h-.722v-.194l.2-.13h.59v-.065h-.2l.328-.324h.328L23,46.193V45.157Z" transform="translate(121.316 448.162)"/>
    <rect id="Rechteck_60" data-name="Rechteck 60" width="0.6" height="1.4" transform="translate(136.857 483.065)"/>
    <rect id="Rechteck_61" data-name="Rechteck 61" width="0.6" height="0.6" transform="translate(136.643 485.22)"/>
    <rect id="Rechteck_62" data-name="Rechteck 62" width="1.3" height="0.8" transform="matrix(0.707, -0.707, 0.707, 0.707, 136.454, 482.353)"/>
    <rect id="Rechteck_63" data-name="Rechteck 63" width="0.4" height="0.9" transform="translate(135.952 483.266)"/>
    <rect id="Rechteck_64" data-name="Rechteck 64" width="0.6" height="0.4" transform="translate(137.374 490.22) rotate(-45)"/>
    <rect id="Rechteck_65" data-name="Rechteck 65" width="0.4" height="0.3" transform="translate(137.386 491.895)"/>
    <path id="Pfad_119" data-name="Pfad 119" d="M11.436,41.905h.8v.742l.223.218-.357.349h-.4v1.134l-.312.305v.611h-.223l-.179-.174h-.312l-.312.305H9.739l-.223.218h-.67v-.087l.134-.174H8.846l-.179.174L8.534,45.4l.268-.262H8.489v-.174h.268v-.174H8.534L8.4,44.653l.179-.218.179.174.268-.262H9.65l.045-.087-.089-.087H9.07v-.087l.223-.218h.268l.134-.174-.223-.174H9.248L9.025,43.3v-.218h.312l.134-.131-.089-.087H9.159v-.174h.223V42.6H9.248l.134-.174h.491l.179.174h.357v-.174l.089-.087h.134l-.268-.218.134-.131h.179l.312-.305h.4l.089-.087h.312Z" transform="translate(124.683 449.106)"/>
    <path id="Pfad_120" data-name="Pfad 120" d="M16.8,40.9v.2H17v.4h.2v-.6Z" transform="translate(119.439 445.629)"/>
    <rect id="Rechteck_66" data-name="Rechteck 66" width="0.1" height="0.3" transform="translate(137.357 487.338)"/>
    <rect id="Rechteck_67" data-name="Rechteck 67" width="0.6" height="1.9" transform="translate(142.779 478.378)"/>
    <path id="Pfad_121" data-name="Pfad 121" d="M10.894,11.328l.226-.225v-.27h-.338v-.451H10.5l-.169.18H9.372L9.2,10.427v.315l-.169.09-.056-.09v-.5H8.526l-.282.225-.113-.135v-.18l-.169-.09H7.85v.315H7.4l-.282.225H6.948v-.541l.395-.315-.507-.406v.406H6.609V9.525L6.328,9.3,6.1,9.48v.135l-.169.135.677.541-.226.18V10.7H6.1l-.113-.09H5.2l.113.09h.451l.169.18v.946H5.651L5.369,11.6l-.113.135.338.27h.395l.282.225v.225l.169.135h.226l.395.315h3.1V12.68l.226-.225h.451l.338-.27v-.315l.169-.18Z" transform="translate(117.391 467.815)"/>
    <rect id="Rechteck_68" data-name="Rechteck 68" width="0.4" height="0.7" transform="translate(138.534 475.753)"/>
    <rect id="Rechteck_69" data-name="Rechteck 69" width="0.3" height="0.6" transform="translate(139.414 473.973)"/>
    <rect id="Rechteck_70" data-name="Rechteck 70" width="0.7" height="0.3" transform="translate(141.275 480.31)"/>
  </g>
</svg>

