<svg xmlns="http://www.w3.org/2000/svg" width="140.939" height="129.104" viewBox="0 0 140.939 129.104">
  <g id="noun_North_America_416786" data-name="noun_North America_416786" transform="translate(-0.8 -17.32)">
    <path id="Pfad_14" data-name="Pfad 14" d="M62.6,40.738l1.434-.258.43-2.455v-1.68l-.717-1.68v.517l-1.29-.258-1.434,1.163-1-.129v2.585l1.434-.258v1.939Zm10.61,1.551h1.864l2.581-.517,1.147.388,1.29-.646.574-.775-.143-1.292-1-1.292-1.434-.258-1.864.258-1.434.646-1.29-.258-1.29-.129-.574-.775-1-.775.143-1.292-.717-1.163H68.33l-1-1.163-1.864-.258-.287,1.422,1,1.034,1.864.388.86,1.422.143,1.68.287,1.68,2.437,1.034ZM61.592,54.049c-1.147-.775-2.151-1.551-3.154-2.326-.287-1.422-.574-2.972-.86-4.394l-1-1.163-1-.517-.86.388.574,2.843-.43,1.034-.717-2.585-.86-.9-.86,1.422-1.29-1.422-2.007.775.43-1.292-.86-.517L46.25,47.07,45.677,48.1l-.717,1.938,1.577.646h1.434L45.82,51.723l.43.9h1.29l1.864-.258,1.721.517-1.147.388-1.29-.129-1.434.388-.574.258L47.828,55.6l.86-.258,1.29.646.43,1.034c1.29-.129,2.581-.388,3.871-.517L56,55.729l1-.129,1.577.646,1.577.388.287-.775-.574-.9,1.434-.129Zm6.022-5.04,1-2.068,1.147-.517,1.29-2.585-1.721-.775-1.864-.129-.86.775L66.18,45v1.422l.574,2.326Zm.143-7.366.43-1.163L67.9,39.445l-.86-1.163-1.29.9-.43,1.422,1.147.775ZM91.414,53.79,90.7,52.756l-2.151-.9-1-1.68-1.721.517-.143-1.163-1.29-1.292-2.007-1.422-.86,1.034-1.721.775.143-1.809L78.51,44.227,76.216,45.39l-.86,2.2-.717-1.68.717-1.809-2.294.775-.86,1.163-.86,2.326.287,2.585h1.29l-1,1.163.717.9,1.434.388,1.864.646,3.3.517,1.577-.258.43-.646.717.775.86.129,1,1.422-.574.517,1.864.775,1.434,1.034.287.775.287.9-1.147,2.068-.287,1.163.287.646-1.864.258H82.381l-.574,1.422.717.646,2.581-.258v-.517a19.1,19.1,0,0,0,2.724,1.809l-.287.517,1.147.9L90.7,69.686l2.437.646-.287-.517c-.717-.9-1.434-1.809-2.151-2.585l2.294,1.422,1.147.517.287-1.292-.574-1.938-.43-.517-1.29-.9-.86-1.163.143-1.163,1.147-.258,1.434,1.938,1.147.775,1.577-2.326.287-1.422-1.434-.129-1.29-1.809-1.434-.517L90.7,57.021l1.721-1.034ZM71.341,15.02l.717,2.068,1.577,1.68,3.154-.258,2.007.517-1.434,1.809-.717-.517-2.437-.258.43,2.455,1.29,1.809-.287,1.422-1.577,1.034-.717,1.551,1.434.775,1.29,2.455-2.437-1.68-.574.258.43,2.714-1.721.775.143,1.68,1.721.129,1.29.388,2.724-.517,2.294.9,2.437-2.068v-.9l-1.577.129-.143-.775,1.29-1.163.43-1.551,1.434-1.163.86-1.422-.717-2.068.574-.775-1.29-.517,2.724-.517.574-.9L88.4,21.74l1.577-3.877,1.434-1.422,2.151-3.231H91.557l.86-1.292,2.151-1.163,2.151-2.585V6.491L95.285,5.2l-2.007-.9c-2.151-.517-4.158-.9-6.309-1.422L84.389,4.035l-.43-.775-2.724.258-1.577.775L78.51,5.328l-.717,3.36-1-1.68L75.643,6.62,74.209,9.2l-1.721,1.034-1.147.129-1.29,1.163.143,1.938ZM64.029,53.661l-.574,1.034-.86.775,1.29,1.034.717-.258,1.29.646.574-.775c-.287-.388-.574-.9-.86-1.292C65.033,54.436,64.6,54.049,64.029,53.661ZM79.8,45.39l1,1.422.287.129,1-.388c.717,0,1.29.129,2.007.129l-.143-.775-1.577-1.551L80.374,44.1l-.43.129Zm-.717,20.419-1-.646-1-.646L76.5,64l-.43.258-.143-.9h-.717l-.287,1.809-.143,1.551-.717.9,1.29-.129.287,1.034,1.29-.9.86-1.034.574.775,1.434.388.86-.517-.717-.646-.717.129ZM65.033,45l-.287-.775-1.577.388-1-.646-1.147,1.292,1,1.809-1.864-.388v.9l2.294,2.068.574,1.034.86.258,1.434-1.034.143-2.326-1.434-1.163Zm20.79,73.275-.717-.388h-.717v-.258l-.574-.129h-.287l-1.721-1.163-.86.129-.43-.388-.574-.258H78.51l-.287.129-.717.129h-.43l-.43.258-.143.258-.43.258.43.129.43-.129.143-.258h.43l.717-.517h.86l-.573.388.287.129,1.147.129.287.129.86.258h.574l.143.517.287.258h.574l.43.258-.574.517,1.29-.129.574.129h.574l.574-.129Zm4.445,1.034v-.258h-.43l-.143-.258h-.287l-.574-.258h-.717l-.143.129-.717-.129h-.574l-.143.258.574.129v.388l.43.388-.43.129c-.574,0-1-.129-1.577-.129l-.143.258.43.258.43-.129h1l.574.129v.258l.287.129.43-.646.287-.129.143.258h.287l.143-.129h.717l.43.129.287-.388-.43-.258Zm7.886-27.656-.86,1.292-1.577.129-1.147-.646-.287-.775-.287-1.292.86-.775-.86-.646-1.29.129L90.841,90.1l-1.434,1.551-.86.129,1-1.163,1.29-1.68,1.147-.517.717-.9,1-.129H95l2.007.258,1.577-.258,1.147-1.034,1.434-.517c.43-.258.86-.646,1.29-.9V83.385l-.43-.517h-.574l-.43-1.163-.574-.388-1.434-.388-.86-.775-1.147-.775.43-.9L95.285,74.6l-.717-1.422-.574.775-.86,1.809-1.29.9-.717-.9-.86-.258-.287-2.2V71.883L88.4,71.754l-.287-.646-1.147-1.034-.86-.646-.717.517-1-.129L82.812,69.3l-.574.388.287,2.714.43,1.551-1,1.68L83.1,76.794l.574,1.292.143,1.034-.43,1.034-1,1.034-1.434.646.574.775.43,2.2-.574,1.163-.717.388-1.29-1.292-.717-1.551-.287-1.422.143-1.163-1-.129-1.434-.129-1-.517-1.147-.388-.717-.646-.86-.517-1.721-.646-1.29.258-.43-1.163-.43-1.422-1.29-.258V73.563l.287-1.292,1-1.938,1.147-1.422,1-.258V67.489l.717-.775,1.29-.129,1-1.292.287-.9.86-1.68.287-1.034,1,.646,1.29-.258,1.721-1.422.143-1.034-.574-1.163.717-1.163V56.116l-1.147-1.163-1.29-.388L75.5,54.307v2.585l-.717,1.938-1,1.551-.86-1.422.287-1.68-1.147-1.422-1.147,1.809V55.341l-1.721-.517.86-1.163-1.29-2.843-.86-1.163-1.147-.388-1,1.809-.143,2.714,1,.9,1,1.422-.43,2.2h-.717l-.574,1.68V57.926l-1.434-.775-.86.388.143,1.422h-1.29l-1.434.388-1.577-1.034-1,.258-.86-1.163-.717-.517-.717.258L55,57.28l-.574.775.86.9-1,1.034-1-1.292-.574.388-2.437.258-1.577-.517,1.29-1.034-1.29-1.163-.86.129-1.29-.388-2.151-.9-1.434-1.034-1.147-.129-.287.646-1.147.388-.143-1.809-1.147,1.551L37.5,53.015l-.574-.129-.143,1.163-.717.517L35.5,53.532l-1.434.646L32.63,55.212l-1.29-.258-1.147.646-.86.9-1-.258-1.434-1.163c-.86-.258-1.721-.646-2.724-.9L22.737,53.4l-1.147.388-.717-.258-1.721-.258L17.288,52.5l-.717.517-1.434-.388V52.11l-1.577-.129-.43.517-.574-1.292-1.434-.517L9.689,51.981l-.86-.129L7.252,53.015l-.86.258-.86,1.163L5.245,55.6,4.1,56.633H2.521L1.947,57.8l1.29.646.86,1.034.574,1.034,1.147.775.717,1.292-1.864.129.143-1.034H4.1L2.09,62.707.8,63.483l1.147,1.163.43.775,1.29.517,1.29-.258.717.388.287-.388.86-.517H7.4l-.574.775.574.388.143.9-.717.517L6.1,67.618l-.717.775-.574-.258-.86.129-.287.9L2.951,70.2l-.43.9.717.775v.9l.717.388.717.775,1.147-.258.574.517-.143.646.143.9h.574l.86-.646.287.775.287-.517.574.775.43-.517.287.258,1-.517-.287.9-.143,1.163-.717.517-.143.258-1.29.9-.43.646L6.535,79.9l-1,.775-.86.388-1,.646.143.258L5.388,81.7l.717-.517c.574-.258,1.147-.646,1.721-.9l.574.129,1-.646.287-.646,1.434-.775.287-.646.86-.517,1-.646.86-1.163-.717-.775,1.29-1.163.717-1.034,1.147-.9.287.388-1,.517-.43,1.551.143.9,1-.388.86-.517,1-.388.43-.129-.143-1.163,1-.388,1.147.646,1.721.775,1.29-.129c.86.258,1.577.646,2.437.9l1.864,1.68,1,.388h1.434l.86.129.43,1.422,1.147,1.163.287,1.292.86.517.43.517v.775L35.784,83l.143,1.034,1.147.517-.143.775.574,1.163L39.082,87l.717.517,1.721,1.292h.143l.287,1.034.143,1.034-.287.258-.43-1.163-1.29-.388-.143.258.287.517.287,1.034.143,1.551c-.143.646-.143,1.422-.287,2.068l-.287,1.034.287.9v.9l-.143.9.43.646.143.9.717.9.43.388v.258l.717,1.422.86,1.034.143.517.287.129.86.129.287.258h.574l.143.258.43.129.574.517.143.517.43.9c.43.646.717,1.292,1.147,1.939l.574.258.717.646v.388l-.287.388h-.43v.129l.574.517.574.258.287.258.143-.129a4.384,4.384,0,0,0,1,.646l.143.517v.646l.43.258.717.388.574.517.287.517h.143l.43-.388v-.129c-.287-.258-.43-.517-.717-.775h-.43v-.517a2.7,2.7,0,0,0-.574-.775l-.287-.9-.574-.517-.143-.388-.287-.258-.143-.646h-.143l-.143-.258-.143-.129-.143-.258-.717-.646-.287-.388-.574-.258-.143-.517.143-.388.574.258h.287l.717.388v.388l.287.775.43.646v.258a3.205,3.205,0,0,0,1,.9l.43.129.287.646.574.388.43.258-.143.517.143.258.717.388.43.517.86.646.86.9.287.388.143.388.287.388v.258l-.143.258.143.258-.287.129.287.388.43.517,1,.517.43.388.86.258h.574l.287.258.717.388,1,.388.717.129.86.388.717.129.574.258.43-.129.717-.258h.574l.717.258.43.258,1,.9.43.388.43.129H71.2l.43.129.287.129h.574l.43.129.287.129h.574l.143-.258.287.129.143.258h0l-.143-.129-.143.129.43.388.43.258.143.258.717.646-.143.129.287.129-.143.258v.258l.143.129.287.129.143.258.143-.258v-.258l.287.129v.258l.287.129.287.129.287.258v.129l-.143.129.143.129.43.129.143.129v-.129h.43l.287.129h.43l.143.388H79.8l.143-.129.143.517h.43l.143-.129.287-.129-.43-.388.143-.129H80.8l.43-.258.143-.258h.43l.43.258.143.258h.287l-.287.258.143.388.287.258.143-.388h.287l.143-.258-.573-.129.143-.129-.287-.258-.287-.258-.43-.129h-.574v-.129h-.43l-.287.258-.574.129-.43.258h-.43l-.287-.258-.143.129h-.43v-.129a8.276,8.276,0,0,0-1.147-1.034l-.287-.388.143-.258v-.258l.143-.258v-.258l.143-.388.143-.129v-1.034l.143-.388.143-.258-.143-.258v-.129l.143-.129-.287-.258-.43.129-.287-.129-.287-.129H76.36l-.43-.129-.143.129h-.86l-.143.129-.287.129h-.43l-.43-.129h-.143l-.143-.129h-.287l-.143.129c-.143,0-.287-.129-.43-.129h.287l-.287-.129.143-.258h.143l.143-.258.143-.388v-.129l.143-.258-.143-.129.143-.388v-.258h-.143v-.129h.143l.287.258c.143-.388.287-.646.43-1.034l-.143-.129.287-.517.43-.517V117.5l-.287-.388-.574.129h-.86l-1,.258-.573.129-.143.258-.143.775-.287.517-.574.388a4.579,4.579,0,0,1-1.29.258l-.717.129-.86.258-.143-.517-1-.258-.287-.388-.143-.388-.574-.646-.143-.646-.287-.388-.287-.646.143-.388v-1.163l.143-.646.287-.775h0l-.143-.258v-1.034l.143-.388.43-.388.86-.388.86-.646.717-.258.574-.129.717.258.86-.129.717.517h.717l.287-.129.287.129.143-.129-.143-.129v-.388l-.143-.258.43-.129.717-.129.86.129,1-.129.574.258.43.388h.143l.86-.388.287.129.717.775.287.517-.143.646.143.388a13.731,13.731,0,0,0,.86,1.422l.287.258.143.388.43.129.287-.129.287-.517v-.9l-.43-1.034V111.3l-.43-.646-.287-.775-.143-.646.143-.646.43-.517.574-.517,1-.646.143-.388.43-.388h.43l.574-.517,1-.258.574-.775-.143-1.422v-.388l-.287-.129v-1.034l-.574-.388.574.129-.287-.517.143-.517.143.9.43.388-.287.646h.143a6.06,6.06,0,0,1,.86-1.163V100.7l-.287-.129-.143-.517.287.258h.143v.258l.717-.775.143-.775h-.287l.287-.258v.129h.574l1.29-.388-.287-.258-1.29.258.717-.258a2,2,0,0,0,.86-.129l.717-.129h.43l.574-.129.143-.258-.287-.258.143.388h-.43l-.287-.775v-.646l.143-.258.43-.646c.574-.258,1.29-.517,1.864-.775l1-.517-.143-.388,1-.129h1.434l-1.577.9v.9l.717.129,1-.775,1-.388,2.007-.646,1.147-.775L98.3,92.56ZM72.488,91.4l-.717.388-.717.258-.574-.388-.86.258v-.129c.43-.388.86-.646,1.29-1.034l.86-.388h0l.43-.517.574-.129.143-.258.143-.129.86.258H74.5l.287.129.287.646,1,.129-.143.388.287.388v.517l.43.129c0,.129-.143.258-.143.388h-.287l-.143-.388-.86.129-1,.258-.574-.517-.574-.129.287-.646Zm4.588,4.135v-.258l.43-.517.143-.517-.143-.517-.717-.517-.717-.129-.143.388-.143.129-.143.646-.143-.388-.43.258-.287.388-.287.517v.517l.287.646v.775l-.43.517-.143.129-.287.129h-.287l-.143-.129-.287-.517v-.517l-.143-.517c.143-.517.287-.9.43-1.422l.43-.9h-.143l-.287.646-.143-.129.287-.388.574-.775.574-.129.717-.258c.287,0,.43.129.717.129l.86-.129-.43-.517.143-.129.143.258.717.129h.717l.717.129.86.258.287.388.574.9-.287.388-.86-.129-.43-.775.143.775-.43.646v.517l-.143.258-.574.388h0v-.517l-.143-.646-.287-.129-.573.517ZM80.8,97.083l-.717.258-.43.129-.574.258-.717.129h-.43l-.574-.258.287-.388h0l.43.129.717-.388.43-.258h.287l.43.129.287-.129.43-.129.86-.129h0v.129Zm2.581-1.163-.717-.129h-.717c-.143,0-.287.129-.43.129h-.287l-.43-.129.287-.388.287-.129a4.647,4.647,0,0,1,1.434-.258l.43.258.287-.258.287-.129.143.129a.131.131,0,0,0,.143.129v.388Zm21.507-6.332-.574.129.287-.9-.86-.388-.43.258-.86-.388.287-.388-.574-.258-.574.388a13.723,13.723,0,0,1,1.147-1.938l.143-.388h-.43l-.717.388-.574.775-1,2.068-.717.775.43.388-.717.388.143.388h1.721l1-.129.86.258-.573.517h.573l1-1.034.287.129-.143,1.034.574.258h.43l.43-1.034-.287-.775Zm36.561-77.152-2.724-1.163-4.445,2.2-2.294,2.068,1-3.231-.717-2.068-1.72,1.809L127.832,9.98l-3.154.646-.43-1.034c2.724-.388,5.592-.646,8.316-.9l1.721-2.455L128.692.8l-7.169-.9-3.154.646-1.147,2.585-3.154-.258-3.011,4.006-.143,2.585,2.151,3.1L111.2,10.756l-1.29-.517-2.151-2.326-2.437,3.231-1-1.809h-2.724l-2.724.9-2.151,1.551.43,2.455-1.29.517L92.7,18.38l-1.29,2.326,2.437,1.68-.287,1.68c-2.294,1.422-4.445,2.714-6.739,4.135l-.287,1.551L88.547,31.3l3.871,1.034-1.864.258L88.26,33.63l1.577,2.2,1,1.034c1.577-.129,3.011-.258,4.588-.388l1.864.258L99.73,38.67v1.292l1.147,1.163c.574,1.68,1.147,3.489,1.864,5.169l.574,1.034-1,2.455.717.646.86-.388c.717.775,1.577,1.68,2.437,2.455l-1.864-.646h-.86l-.287,1.292v1.68l1.147.775.86-.388c.573-.388,1-.775,1.577-1.163l-.143,1.809-.287.9-1.434.775-.86,2.585.574.775-.43,1.68,1.29,1.809.143,1.68.43,1.163,1.577,2.2.574,1.68.86.9h1.864l1.29,1.292,1.29-.129c.287-1.034.574-2.068.86-2.972l-.43-1.422L115.5,67.36l.43-1.163V64.9l.717-1.163c.86-.258,1.721-.646,2.437-.9l.573-.129,2.007-1.422,1.29-2.2,1-.775h1l2.581-.775,2.437-1.809,2.437-2.068c-1.147-.129-2.437-.129-3.584-.258l1-1.292-.287-1.68c.574.775,1.29,1.551,1.864,2.455l1.577-.517-.143-1.939L131.7,48.879l-1.29-.646.43-.775,1.721,1.163V47.458l-1-1.938h1.29l1.29-.388.287-1.163-1-1.163,2.007-.258-1.147-2.714,1-.258-.143-2.843-1.864-1.809,1.434-1.163,1.434-.129L135,31.174V26.781l1.721-6.2-2.151-.258,2.868-.775.574-1.163,3.728-3.748ZM67.04,24.2h1.721l-.717,1.163V26.91l1,1.68,1.864.517,1.577-.258,1.721-3.1,1.29-1.292L74.209,22.9l-.717-3.1-3.011-1.938L69.334,15.02l-2.151.258.43,1.163-1,.388-.574,1.551-.574,2.2.574,2.068Zm-2.868,5.3.717.9,1.29-.775.287-1.422L65.32,26.781l-.574-.258L63.6,26.393v1.68Zm-5.592-2.326-.86,1.163,2.007.129,1.434,1.292,1.434.388-.287-1.68-.717-1.938-2.437-1.551-1.721-.646v1.68ZM44.387,36.99l1.721-1.422.86-.129.717-1.292.143-2.843-1.29.517H45.1L43.24,34.147l-1.577,2.585,1.29.775ZM46.394,39.7l1.29.517,4.158-.388-2.007,1.422.143,1.034,1.434-.129,2.294-1.292,3.011-.517L57.29,38.8l-.143-1.68-1-.129-.86.517L55,36.344l-.287-1.68-1-.388-.86,1.292,1.29,3.231L52.7,38.67l-1.577-1.938-2.581-1.163-.86.9ZM41.519,51.852l2.437-1.163V49.526L45.1,47.716l2.151-1.938L48.4,45l-1-1.163-.86-.9-2.294-.258-1.29-.646-3.011.517.86,1.809-.717,1.809c-.287,1.034-.717,2.068-1,3.1l2.151,1.422Z" transform="translate(0 17.42)"/>
  </g>
</svg>
