<svg xmlns="http://www.w3.org/2000/svg" width="77.567" height="67.333" viewBox="0 0 77.567 67.333">
  <g id="noun_Oceania_710123" transform="translate(-5 -6.828)">
    <path id="Pfad_15" data-name="Pfad 15" d="M77.79,40.543l.194-.356.194.6Z" transform="translate(-12.433 -3.98)"/>
    <path id="Pfad_16" data-name="Pfad 16" d="M80.494,37.645v-.389l.4.486Z" transform="translate(-12.433 -3.567)"/>
    <path id="Pfad_17" data-name="Pfad 17" d="M79.441,36.091v-.4l.356.2Z" transform="translate(-12.433 -3.344)"/>
    <path id="Pfad_18" data-name="Pfad 18" d="M78.454,34.31l.324-.1-.47-.6h-.13Z" transform="translate(-12.433 -3.069)"/>
    <path id="Pfad_19" data-name="Pfad 19" d="M77.515,32.351l.275-.259.194.842-.7-.259V31.9Z" transform="translate(-12.433 -2.843)"/>
    <path id="Pfad_20" data-name="Pfad 20" d="M92.755,36.776l.712-.453-.259-.434-.453-.451-.518.13-.518.321-.151.564.669.173Z" transform="translate(-12.433 -3.353)"/>
    <path id="Pfad_21" data-name="Pfad 21" d="M93.338,34.31l.13.61.475-.324H94.5l.5-.734-.957.342Z" transform="translate(-12.433 -3.119)"/>
    <path id="Pfad_22" data-name="Pfad 22" d="M60.881,18.75l.158-.145.329.5.171.065.293.435.475.549.244.085.219.475-.354.207-.591-.39v-.378l-.384-.329-.293-.207L61,19.006Z" transform="translate(-7.885)"/>
    <path id="Pfad_23" data-name="Pfad 23" d="M63.539,20.811l.622.573h.2l-.146-.463-.414-.11Z" transform="translate(-8.161)"/>
    <path id="Pfad_24" data-name="Pfad 24" d="M64.075,22.408l.28-.183.1.4.28-.11h.28l.244.585-.329-.256h-.5Z" transform="translate(-8.27)"/>
    <path id="Pfad_25" data-name="Pfad 25" d="M66.306,21.993l.744.61.488.207.11.293.146-.1.232.207.049-.11-.5-.6-1.1-.512Z" transform="translate(-8.639)"/>
    <path id="Pfad_26" data-name="Pfad 26" d="M67.793,24.553l.28.329.463.061.4.11.378-.146-.549-.475-.475-.085-.427.122Z" transform="translate(-8.824)"/>
    <path id="Pfad_27" data-name="Pfad 27" d="M70.268,25.7l.122.317.366.061.219.232.28-.073-.183-.329-.366-.134Z" transform="translate(-9.116 -1.963)"/>
    <path id="Pfad_28" data-name="Pfad 28" d="M70.073,24.626l.2-.207-.427-.268-.39-.512-.061-.427-.171-.256-.171.061.183.39.012.384.244.323Z" transform="translate(-8.97)"/>
    <path id="Pfad_29" data-name="Pfad 29" d="M28.265,11.871l.422.34.759-.243-.421-.356h-.437Z" transform="translate(-3.257)"/>
    <path id="Pfad_30" data-name="Pfad 30" d="M35.534,12.777l.227.4h.4l.081-.2-.356-.105-.194-.1Z" transform="translate(-4.252)"/>
    <path id="Pfad_31" data-name="Pfad 31" d="M35.534,13.813l.5.227.55.081v-.227H36.06Z" transform="translate(-4.268)"/>
    <path id="Pfad_32" data-name="Pfad 32" d="M33.268,19.966v.842l.486-.178.389-.907-.243-.437-.194-.116-.21.554Z" transform="translate(-3.943)"/>
    <path id="Pfad_33" data-name="Pfad 33" d="M27.876,27.607l.689.062.528.081.569-.463-.065-.26h-.553l-.52.138-.5.081-.122.142Z" transform="translate(-3.224 -2.151)"/>
    <path id="Pfad_34" data-name="Pfad 34" d="M36.465,30.636l.122-.11.341.219.183.329h-.4Z" transform="translate(-4.378 -2.633)"/>
    <path id="Pfad_35" data-name="Pfad 35" d="M50.332,14.429l.178-.178.5.089v.2h-.518Z" transform="translate(-6.31)"/>
    <path id="Pfad_36" data-name="Pfad 36" d="M44.536,26.182l-.421.793-.21.826-.421.826.259.146-.049.308-.21.13v.47l.113.34-.324.47v.194l.162.356-.065.971-.1.971-.162,1.036-.486.923-.178.648-.113.162-1.085.243-.5-.372-.631-.259-.243-.486-.615-.178-.567-.291-.534-.583-.615-.291-.777-.13-1.732-1.587.648-.955.146-.518-.178-.55.55-.372.291-.372.567-.664-.777-.291v.291l-.13.162-.356.016-.065-.356-.826-.049-.178.13-.227-.065-.243-.21-.243-.065-.583.178-.13-.291-.437-.113-.664-.049-.243-.113-.308-.356-.308.065-.162-.194-.194-.162-.227.016-.13.178.21-.016.162.1.194.259.162.308v.324l-.453.194-.648.113-.534-.13-.615-.081-.194.486-.4-.13-.648,1.392v.194l-.324.032-.583,1.166.5.47-.13.6-.259-.275-.194.016-.389.049-.372-.275-.939.421v-.21l.1-.227-.1-.227-.939-1.02-.745-.227-.21.389-.583.146-.21-.227-.162.826-.712.032-.324.227.275.6h-.146l-.13-.113-.486.032-.113.34-.453.194.162.437.049.356-.21.47-.113.146L19.6,33.84l-.324.13-.324.583.567.55-.113.162-.178-.032-.194.437-.4-.615-.178-.372-.146-.178L18,34.342l-.486.534-.291.453.1.664.113.518-.518.518-.4.4-.308.68-.356.421-.648.34-1.57.47-.5-.194-.664.453-1.133.437-.664.243-.7-.227-.809.534-.47.243-.421.47-.518.259-.7.308-.259.453-.194.534-.291-.081v-.939l-.21.194-.356.939.21.324-.13.583-.081.68-.275.275-.13.518.178.631.21.486.291.583.356.89.081.4L6.3,48.67,6.133,48.4l-.227-.146-.016.194.1.227-.13.227-.308-.1-.113-.389L5,48.3l.194.308.437.47L6,49.787l.291.6.081.7.534.777.146.664.356.567.081,1.182.275.826.178.534L8.5,56.7l.081,1.149-.194.47v.858l-.194.664-.712.275-.016.486.178.356.6.178.4.34.259.356.5.162.291.162h.793l.518.13.421-.113.6-.259.534-.518.194-.243.631.016.275-.567.453-.194,1.036-.13,1.166-.113.793.081.081.356.4-.291.809-.016.162.178.324-.049.421-.356.275-.453.243-.6.518-.324.421-.13.761-.372.923-.518.356-.016.777.032h.534l.745-.243.939-.421.567-.356,1.117-.016.777-.13.486.146.745-.113.55.21.567.308.275.259.68-.178.356.389.761-.1.437.583.34.113.146.324-.275.227.291.372.437.113.243.6.421.453.291.55.194.712.049.437.389.194.049-.21-.1-.113.049-.275L36,61.1l.372-.55.5-.389.712-.534.049-.291.518-.55.113-.712.146.47.146.68-.259.049.1.259.162.21-.631.729-.13,1.506-.615.1-.113.21.178.178h.389l.534-.113.162-.712.291-.826.194.113.21.486.291.4-.194.858-.324.453.13.081.324-.081.34-.21.146.291.5.243.291.227.308.534.227.7-.227.6.259.5.324.324.291.518.4.243.049.113h.453l.194.178.243.4h.389l.34-.178.47.081.47.194.4.275.55.13.437.21.47-.389.356-.243.259-.583.356-.21.227-.162.291.34-.21.777.291-.162.324-.356.194.065.081.534.194.21.583.275.389-.194.534-.081.5-.518.55-.6.13-.259.793-.081.6-.146.858.113.729-.437V65.119l.308-1.085L55.189,63l.356-.615.259-.712.081-.631.389-.421.1-.858.34-.21L57.1,58.9v-.237l.869-.642.13-.219-.1-.3.561-.8.276-.926v-.423l-.081-.333.2-.683.325-1.146.228-.8.065-.293-.081-.8-.244-.585-.3-.536-.106-.26.106-.317-.073-.439-.016-1.406.366-1.024-.065-.414-.138.024-.008.406-.284.715-.13-.325-.512-.512-.024-.317-.447-.284-.252-.39-.211-.439-.228-.268-.5-.122-.26-.5-.4.081-.057-1.365-.5-.2-.5-.3-.057.081.081.349-.65-.65-.065-.561-.187-.577-.13-.374-.463-.211-.228-.528-.309-.431-.544-.5-1.016-.333.081-.171.114-.049-.114-.114-.463-.2-.569-.2-.423-.455-.325-.7L49.37,36.5l.1-.5-.016-.374-.317-.65-.309-.349-.276-.5-.073-.683-.146-.593-.081-.179.106-.2.057-.358-.447-.325L47.4,31.4l-.057-.333-.463.228-.26.244-.382-.374-.179-.772-.049-.488.073-.146-.317-.707-.13-.479L45.4,28.45l.089-.406-.447-.544-.049-.8-.366-.52Z" transform="translate(0 -4.844)"/>
    <path id="Pfad_37" data-name="Pfad 37" d="M87.918,72.367l.391.313.324.2.759-.51.424-.9.692-.985.3-.811-.234-.521.335-.3.4-.243h.458l.056-.382.5-.7.19-1.124L91.9,66.25l-.569.614-.469.093-.927-.429-.391-.278-.223-.579-.033-.487-.357-.371-.011.938-.234-.081-.77-.857-.022-.429.084-.139-.257-.446-.14-.278.095-.2L87.51,63l-.078-.266-.095-.2-.452-.3L86.3,62.16l-.508-.585-.117-.1-.033.174.424.568.045.51.318.452.441.637.173.22.3.041.061.214-.112.18.229.446.229.33.167-.07.117.284-.123.11.14.759.073.51-.067.469-.2.371-.084.637-.346.336-.6.278-.039.145.117.278.335.127.307.127.234.255.463.145.285.568-.017.637Z" transform="translate(-13.383 -8.336)"/>
    <path id="Pfad_38" data-name="Pfad 38" d="M36.587,63.581l.194.259,1.133-.13.291-.259-.421-.243h-.81Z" transform="translate(-4.443 -7.19)"/>
    <path id="Pfad_39" data-name="Pfad 39" d="M51.87,70.559l.178-.308.4.47-.162.469Z" transform="translate(-6.517 -10.026)"/>
    <path id="Pfad_40" data-name="Pfad 40" d="M47.6,71.951l.664.113.729.421.55.178.68.1.275-.227.971-.016.178-.162h.227l.081-.275.21.081.227.6v1.247l-.372.534-.146.809v.421l-.55.1-.4.777H50.72l-.065.291-.34.243-.259-.065-.68-.324-.534-.583-.291-.55-.243-.939v-.648l-.389-.453-.4-.988Z" transform="translate(-6.209 -10.026)"/>
    <path id="Pfad_41" data-name="Pfad 41" d="M46.473,70.883h.216l.108-.8h-.324Z" transform="translate(-5.75 -10.026)"/>
    <path id="Pfad_42" data-name="Pfad 42" d="M85.432,76.778l-.488-.443.081-.516.57-.553.366-.479.712-1.014v-.5l-.081-.24.265-.314-.346-.111-.305-.277-.183.258-.631.129-.061-.516-.387-.074-.122-.277h-.163l-.346.258-.244.811-.346.572-.549.821-.224.544-.529.479-.448.184-.651.682-.916.479-.631.387-.469.12-.207.437-.218.052-.253.4-.758.6-.4.5-.276.7.1.177-.1.229.08.2.264.177h.448l.253-.094.2.042.276.3h.483l.425.427.253-.167.333.1.494.062.3-.125.506-.656.781-.542.2-.844.414-.864.1-.469.345-.51,1.046-.521.138-.156.414.1.184.042Z" transform="translate(-12.433 -8.408)"/>
    <path id="Pfad_43" data-name="Pfad 43" d="M78.716,83.273h.329v.4l.219.061v.134l-.878.317.158-.457Z" transform="translate(-12.433 -10.026)"/>
    <path id="Pfad_44" data-name="Pfad 44" d="M28.687,12.749H28.9l.205.342.225-.242v-.231l.567-.07.391-.393.694.111.489.181.508.1.342.121v.322l.205.282-.205.5.127.282v.413l.264.393h.166v-.292l.108-.01.049.433.2.292.137.221h.557l.469-.564.381-.423.068-.221.87-.191L36,13.555l.489-.181.87.413,1.115.574.5.07.557.081.538.231,1.1.463.665.3.528.07.6.292.381.141.489.292.5.282.293.151.381.473v.634l.724.191.567.252.714.4.235.362-.108.1h-.293l-.45-.282-.156.282.137.423.186.423.4.332.479.423.2.312v.322l.352.443.274.07h.567v.211l-.059.252.352.151.46.5.186.1h.381l-.117.191.039.231-.274.2-.215-.268-.284-.161-.606-.131-.2-.1-1.193-.1-.46-.382-.528-.493-.626-.916-.469-.564-.528-.161-.626-.141-.5-.181-.274.282-.127-.01-.244-.161-.2.5-.059.483L42,20.992l-.068.161.4.282.068.292L41.926,22l-.381.131-.43-.141-.577-.081-.46.05-.43-.332-.43-.382-.411-.473-.577-.07-.489.091-.176.292-.323-.02-.088-.1-.166.091-.254.1L36.392,21l-.059-.2.264-.463.284-.272.372-.04.323.05.01-.161-.274-.231.205-.332-.108-.091-.342-.5-.284-.684-.127-.252L36.3,17.6l-.127-.141-1.036-.433-.86-.362-.6-.081-.342-.081-.313-.453-.362.01-.117.1-.156-.091-.127-.171-.137-.04-.264-.272-.244.453-.342.211-.205-.081-.205-.372.1-.413-.313-.332-.2-.091-.342.01v-.2l.352-.1.293.091.137.1.235-.191.342-.211.264.111.372-.07.029-.231-.264-.181L31.6,14.2l-.274-.1-.489.07-.45.01-.225-.231-.1-.4-.342-.131-.381-.111L29,13.293,28.854,13Z" transform="translate(-3.088 -5.328)"/>
    <path id="Pfad_45" data-name="Pfad 45" d="M53.311,19.706l.712.227h1.619l.583-.227.453-.615L57.5,18.8v-.324l.34-.486-.308-.583-.259-.13-.389.146.1.421.032.421-.5.1-.518.7-.907.11-.21-.4-.227.016-.032.308-.907-.016-1.1.094.146.262Z" transform="translate(-6.983)"/>
    <path id="Pfad_46" data-name="Pfad 46" d="M55.9,15.349v-.2l.748.414.731.374.577.528.528.471.268.268.089.455-.1.138h-.309l-.089-.325.016-.293-.522-.6-.355-.382-.715-.4-.618-.333Z" transform="translate(-7.27)"/>
    <path id="Pfad_47" data-name="Pfad 47" d="M73.807,39.7l.081-.259.712.486.259.259.421.194.243.421.389.308.372.243.421.227.356.356.453.227.1.389-.453-.146-.437-.065-.178-.275-.372-.194-.21-.178-.389-.081-.291-.227L74.892,41l-.13-.291-.389-.259Z" transform="translate(-9.925 -4.017)"/>
  </g>
</svg>

