<svg xmlns="http://www.w3.org/2000/svg" width="51.905" height="88.815" viewBox="0 0 51.905 88.815">
  <g id="noun_South_America_416781" data-name="noun_South America_416781" transform="translate(-20.6 0.5)">
    <path id="Pfad_48" data-name="Pfad 48" d="M45.266,80.418l-.976-.444-1.242,1.065.532.8.976-.8.532.621,1.508-.532.355-.621-.887-.8ZM72.327,20.972l-.355-1.42-.444-.355-.976-.089-.887-.355-1.42-1.242-1.686-.887H64.874L62.745,16l-1.331.355.177-.621-.532-.621c-1.065-.444-2.129-.8-3.283-1.153l-.887.71V13.519l-1.952-.177-.355-.355.8-.887v-.8l-.621-.177-.621-1.952-.266-.621-.266.266-.177-.444L52.275,7.4c-.8-.266-1.6-.444-2.4-.71l-.887.089-.089.177-1.331-.266a10.634,10.634,0,0,1-1.065-.976h-.444V5.09l-.71-.71A8.1,8.1,0,0,1,44.2,3.67H43.58L43.4,2.783l-.887-.532-.887-.089-.266-.532.976-.355c-.887,0-1.775,0-2.751.089v.266l-.621.532-.887-.177-.621-.532L36.3,1.541h-.976V1.186l-.71-.621h-.8l-.444-.8-.355.355L33.2.653l-1.42.444.089.887.355.355-.266.8-.444.089-.444-.887.355-.621V1.1L31.07.565l.621-.089V.21l.177-.355L31.6-.411,31.247-.5l-.532.532-1.331.8L28.5.742l-.089.266H27.7l-.532.621-.177.976V2.96l-.444.177-.8.8h-.532l-.177.089.266.621L25.125,5l-.444-.089-.177.444.444.621.177.976-.266.266.266,1.065-.177.621.444.266c-.355.444-.621.887-.887,1.242l-.532.089-.266.444.089.532-.444.089.177.355-.8.444-.621.266.089.444-.444.71-.177.71-.444.089.177.976-.266.355.71.532.444-.532.266.444-.621.887-.887.71-.355.8.532,1.065-.355.532.8.444.887.71.355.8.444.532c.71,1.508,1.42,2.928,2.129,4.348l.976,1.508-.177.266.444.976.887.71,1.952,1.242,2.218,1.153.089.444,1.153.71.266,1.686.089,1.952c-.355,2.573-.71,5.057-.887,7.63l-.621,1.508.177,1.6-.355.976.266,1.952c-.621,2.129-1.42,4.259-2.041,6.477H29.3l.089,1.6.355,1.42-.532.976c-.266,1.6-.444,3.283-.71,4.88l.71.177.355-1.863.71.444-.532,3.105L28.5,68.174l-.444,2.573-1.065,1.42,1.686.444-1.242,1.331-.444,1.6.177,2.928L27.7,79.62l-.355,1.065.355,1.153h0l.177,1.242.355.355.266.177,1.065,1.42L30.715,86.1l1.42,1.065,1.153.266.8.621.621.177.532.089.976-.621.355-.8.532.71,1.065-.089.532-.976L37.1,86.1l-1.331-1.331-.444-1.153-.089-1.6-.177-.089-.621-.887-.355-1.863.444-.8.976-.71.71-2.041,1.331-.976.355-1.508-1.065-.355-1.065-1.153.355-1.242.887-.8h1.065l.266-.8.177-1.6.887-.976,1.065-.444-.355-.8-.621.444-.71-.355-.177-1.508.444-.355,1.065.532,1.153-.177.71-.532-.177-.71.266-1.065-.266-.887,1.242.177,2.218-.266,1.686-.8L48.016,57.7l.089-.71-.71-.621.177-.976-1.42-1.153.089-.71.71.71h.8l1.065.621.621-.177.8.266,1.242-.71.444-.887.71-.8.532-1.242.8-.621.976-1.065,1.242-2.307.8-.71.266-.621.177-1.242-.177-.71.177-.887.976-1.242,1.331-.976,1.242-.355.8-.532,1.775-.444h1.242l.266-.71.887-.532.177-1.242,1.153-1.508.177-1.6.355-.444A26.007,26.007,0,0,1,68.246,31L67.8,28.868l.355-.8h.266l.8-.976.71-1.242,1.6-1.6.532-.71.444-1.863Z"/>
  </g>
</svg>
